<svg width="200" height="32" viewBox="0 0 200 32" fill="none" xmlns="http://www.w3.org/2000/svg">
<path d="M70.1643 25.3623C74.0471 28.0087 78.8153 29.844 83.5756 29.1798C87.0469 28.696 89.9254 26.4949 92.4447 24.2092C95.7142 21.2422 98.7167 18.0052 102.076 15.1345C104.099 13.4062 106.179 11.6827 108.551 10.4475C109.451 9.97863 110.397 9.59996 111.371 9.30946C111.427 9.2936 111.468 9.28105 111.503 9.26908C111.54 9.26241 111.6 9.2497 111.686 9.23203C111.898 9.18625 112.112 9.1522 112.326 9.11813C112.472 9.09468 112.618 9.07815 112.766 9.06427C112.436 9.10187 113.135 9.05406 113.263 9.05576C113.283 9.05614 113.297 9.05499 113.313 9.05647C113.363 9.06195 113.414 9.06742 113.464 9.07503C113.531 9.08677 113.6 9.10118 113.656 9.11247C113.714 9.13334 113.773 9.15206 113.831 9.17506C113.909 9.20748 113.997 9.24461 114.05 9.27084C114.22 9.35263 114.388 9.44295 114.553 9.53488C114.577 9.54748 114.595 9.55855 114.611 9.56695C114.65 9.59221 114.7 9.62696 114.773 9.6738C115.101 9.88644 115.417 10.121 115.728 10.3588C115.886 10.4806 116.041 10.6062 116.196 10.7339C116.217 10.7502 116.379 10.8933 116.459 10.9624C117.108 11.5485 117.718 12.1792 118.31 12.8216C120.904 15.6373 123.114 18.7801 125.719 21.5893C128.691 24.7945 132.125 27.2579 136.256 28.738C140.239 30.1666 144.876 30.6016 148.789 28.7319C151.896 27.2479 154.234 24.6451 156.27 21.9397C158.485 18.9955 160.387 15.8311 162.54 12.8448C163.561 11.4274 164.651 10.0537 165.864 8.79566C166.41 8.22991 166.987 7.70119 167.596 7.20258C167.889 6.96188 168.197 6.73811 168.507 6.51964C168.844 6.285 169.227 6.05695 169.376 5.97545C171.374 4.8915 173.625 4.11499 175.879 3.83145C175.91 3.8275 176.283 3.80021 176.37 3.79211C176.553 3.78649 176.733 3.78728 176.916 3.78858C176.972 3.78869 177.122 3.79769 177.242 3.80638C177.402 3.82488 177.562 3.84552 177.723 3.87094C176.652 3.71335 178.069 4.06748 178.1 4.02306C178.243 4.08482 178.448 4.17274 178.523 4.21105C178.581 4.24096 178.801 4.36655 178.878 4.40538C178.98 4.47064 179.079 4.53753 179.178 4.6044C179.551 4.85504 179.903 5.13671 180.25 5.42375C180.138 5.33568 180.529 5.68095 180.545 5.6984C180.755 5.89596 180.958 6.10526 181.158 6.31193C181.516 6.68301 181.855 7.0766 182.186 7.4729C183.538 9.09143 184.676 10.8777 185.783 12.6652C188.069 16.3547 190.249 20.2942 193.535 23.2117C194.688 24.236 196.269 24.7289 197.804 24.7366C198.443 24.7398 200.545 24.2796 199.381 23.2459C193.454 17.9847 191.242 9.77829 185.158 4.63488C178.125 -1.31175 166.703 -0.0207192 160.281 6.18968C155.109 11.1875 152.344 18.1336 147.301 23.2503C146.235 24.3294 144.857 25.43 143.743 26.0053C143.149 26.3132 142.519 26.5516 141.879 26.7422C141.812 26.7555 141.578 26.8163 141.528 26.8268C141.343 26.8633 141.158 26.8908 140.971 26.9178C140.837 26.9374 140.705 26.9506 140.572 26.9612C140.993 26.9208 140.262 26.9608 140.124 26.9613C140.077 26.9612 139.994 26.957 139.914 26.9512C139.773 26.9352 139.633 26.9171 139.493 26.899C139.475 26.897 139.462 26.8939 139.447 26.8924C139.247 26.8486 139.049 26.7985 138.851 26.7483C138.845 26.7468 138.84 26.7457 138.834 26.7442C138.821 26.7411 138.809 26.7358 138.796 26.7327C138.564 26.6562 138.335 26.5717 138.106 26.4845C137.905 26.4088 137.705 26.3357 137.505 26.2579C137.387 26.2045 137.271 26.1494 137.154 26.0917C136.95 25.9926 136.75 25.8855 136.55 25.7784C136.508 25.7547 136.302 25.6349 136.202 25.5792C135.872 25.3729 135.55 25.1549 135.232 24.9289C134.379 24.3251 133.772 23.7967 133.204 23.2664C127.572 18.0132 124.008 10.3583 116.579 7.26988C112.365 5.51882 107.67 5.70662 103.586 7.68618C98.9717 9.92364 95.0797 13.6794 91.4295 17.2114C88.6903 19.864 86.0631 22.7831 82.8518 24.8834C82.3339 25.221 81.8521 25.4749 81.1293 25.781C80.8022 25.9187 80.4674 26.032 80.1283 26.1351C80.1017 26.1422 80.082 26.1488 80.0624 26.1553C80.0459 26.1581 80.0315 26.1614 80.0124 26.1658C79.7831 26.2165 79.5511 26.2507 79.3196 26.2828C79.2679 26.2906 79.1641 26.2994 79.0789 26.3058C78.9766 26.3082 78.8727 26.3079 78.7715 26.306C78.7534 26.3062 78.731 26.3052 78.7064 26.3038C78.6073 26.2934 78.5064 26.2803 78.4062 26.2651C79.4778 26.4136 77.6149 25.9947 78.0756 26.1738C77.9838 26.1426 77.8924 26.1092 77.801 26.0758C77.6909 26.0356 77.584 25.9917 77.4744 25.9494C75.5189 25.0631 73.7564 23.7155 71.8426 22.0963C69.4449 20.0666 67.3294 17.7393 64.8868 15.7551C60.9459 12.555 56.1002 10.2358 50.9471 10.2066C46.9636 10.1825 43.4846 11.9877 40.3845 14.3385C36.6668 17.1586 33.3938 20.5515 29.9214 23.6568C28.4039 25.0151 26.9479 26.325 25.254 27.1234C24.532 27.4637 23.7781 27.7307 23.0137 27.9568C22.9844 27.9656 22.7356 28.0319 22.651 28.0543C22.5026 28.0884 22.3543 28.1225 22.2069 28.1524C21.7425 28.2501 21.271 28.3212 20.7994 28.3833C20.6525 28.402 19.9262 28.4612 19.8602 28.4723C19.5177 28.4866 19.1747 28.4939 18.8315 28.4922C18.6733 28.4923 17.9963 28.4596 17.8786 28.4604C17.5 28.4276 17.1214 28.3857 16.7453 28.3331C16.5682 28.3084 16.3943 28.2799 16.2182 28.2508C16.2076 28.2482 16.199 28.2462 16.1883 28.2436C15.7876 28.1625 15.3888 28.0637 14.9937 27.9591C14.9531 27.9493 14.8938 27.9327 14.8329 27.9135C14.7133 27.8755 14.5958 27.8381 14.4766 27.798C14.1443 27.686 13.8157 27.559 13.4901 27.4284C13.5478 27.4423 12.8153 27.1161 12.6542 27.0342C12.4809 26.9471 12.3113 26.8542 12.1395 26.7607C12.0694 26.7234 12.0218 26.6961 11.9795 26.6746C11.9618 26.6635 11.9426 26.6498 11.9131 26.6314C11.5929 26.432 11.2832 26.2171 10.9778 25.9942C10.8277 25.8856 10.6814 25.7712 10.5355 25.6546C10.4369 25.5766 10.3795 25.5333 10.3468 25.5096C10.334 25.4974 10.3141 25.4768 10.2744 25.4447C9.05142 24.3427 8.35925 23.3916 7.78258 22.0191C6.4544 18.857 7.46564 15.3303 9.30002 12.5402C10.0082 11.4627 8.2385 10.6959 7.44712 10.4074C6.6472 10.1168 3.95042 9.35161 3.28912 10.3569C1.3326 13.3343 0.148386 16.6791 1.10511 20.2369C1.93508 23.3283 4.45629 25.8192 7.10032 27.4659C13.6916 31.5668 23.0392 33.0283 30.2919 29.8437C32.1605 29.0243 33.6902 27.8112 35.2089 26.4758C37.1255 24.7941 38.9836 23.0462 40.8556 21.3152C43.7353 18.6515 46.7746 15.6921 50.3031 14.0841C50.6715 13.9158 51.0476 13.7719 51.4302 13.6386C51.6178 13.5733 51.8081 13.5154 51.9979 13.4597C52.0367 13.4488 52.0707 13.4389 52.0978 13.4297C52.1239 13.4247 52.1574 13.417 52.1978 13.4087C52.5802 13.3228 52.9688 13.2677 53.3563 13.226C53.3611 13.2249 53.3632 13.2254 53.368 13.2243C53.3909 13.223 53.4133 13.2239 53.4453 13.2226C53.6637 13.2168 53.8816 13.222 54.0991 13.2295C53.3418 13.2112 54.887 13.4201 54.6173 13.33C54.677 13.3444 54.739 13.3594 54.7982 13.376C54.8191 13.3833 54.842 13.3911 54.8693 13.4C55.091 13.4739 55.308 13.558 55.5244 13.6442C55.5287 13.6453 55.533 13.6463 55.5368 13.6495C55.5731 13.6673 55.6197 13.6899 55.6849 13.7192C55.9165 13.8271 56.1438 13.9431 56.3685 14.0607C56.4349 14.0948 57.0092 14.4211 57.0225 14.4221C61.9123 17.4091 65.4299 22.1351 70.1643 25.3623ZM78.3887 26.2812C78.3909 26.2817 78.393 26.2822 78.393 26.2822C78.3535 26.2772 78.3423 26.2767 78.3887 26.2812ZM78.3951 26.2827C78.393 26.2822 78.3909 26.2817 78.3909 26.2817C78.4244 26.283 78.4884 26.2895 78.5902 26.2983C78.5151 26.2914 78.4394 26.2867 78.3951 26.2827Z" fill="black"/>
</svg>
