<svg width="32" height="32" viewBox="0 0 32 32" fill="none" xmlns="http://www.w3.org/2000/svg">
<path d="M15.9989 9.58981C12.5362 9.58981 9.74154 12.3844 9.74154 15.8472C9.74154 19.31 12.5362 22.1046 15.9989 22.1046C19.4617 22.1046 22.2563 19.31 22.2563 15.8472C22.2563 12.3844 19.4617 9.58981 15.9989 9.58981ZM15.9989 19.914C13.7596 19.914 11.9321 18.0866 11.9321 15.8472C11.9321 13.6078 13.7596 11.7803 15.9989 11.7803C18.2383 11.7803 20.0658 13.6078 20.0658 15.8472C20.0658 18.0866 18.2383 19.914 15.9989 19.914ZM22.5126 7.8752C21.7041 7.8752 21.0512 8.52809 21.0512 9.33658C21.0512 10.1451 21.7041 10.798 22.5126 10.798C23.3211 10.798 23.974 10.1481 23.974 9.33658C23.9742 9.1446 23.9366 8.95446 23.8632 8.77705C23.7899 8.59964 23.6822 8.43844 23.5465 8.30269C23.4107 8.16694 23.2495 8.05931 23.0721 7.98595C22.8947 7.9126 22.7046 7.87496 22.5126 7.8752ZM28.1964 15.8472C28.1964 14.1631 28.2117 12.4943 28.1171 10.8132C28.0225 8.86064 27.5771 7.12773 26.1493 5.69991C24.7184 4.26904 22.9885 3.82666 21.036 3.73209C19.3519 3.63751 17.683 3.65276 16.002 3.65276C14.3179 3.65276 12.649 3.63751 10.968 3.73209C9.01543 3.82666 7.28252 4.27209 5.8547 5.69991C4.42383 7.13078 3.98145 8.86064 3.88687 10.8132C3.79229 12.4973 3.80755 14.1661 3.80755 15.8472C3.80755 17.5282 3.79229 19.2001 3.88687 20.8812C3.98145 22.8337 4.42688 24.5667 5.8547 25.9945C7.28557 27.4253 9.01543 27.8677 10.968 27.9623C12.6521 28.0569 14.3209 28.0416 16.002 28.0416C17.6861 28.0416 19.3549 28.0569 21.036 27.9623C22.9885 27.8677 24.7214 27.4223 26.1493 25.9945C27.5801 24.5636 28.0225 22.8337 28.1171 20.8812C28.2147 19.2001 28.1964 17.5313 28.1964 15.8472ZM25.5116 23.0412C25.2889 23.5965 25.0204 24.0114 24.5902 24.4385C24.1601 24.8687 23.7482 25.1372 23.1929 25.3599C21.5882 25.9975 17.7776 25.8541 15.9989 25.8541C14.2203 25.8541 10.4066 25.9975 8.80186 25.3629C8.2466 25.1402 7.83168 24.8717 7.40455 24.4416C6.97438 24.0114 6.7059 23.5995 6.48318 23.0443C5.8486 21.4364 5.99199 17.6259 5.99199 15.8472C5.99199 14.0685 5.8486 10.2549 6.48318 8.65013C6.7059 8.09487 6.97438 7.67995 7.40455 7.25282C7.83473 6.82569 8.2466 6.55416 8.80186 6.33145C10.4066 5.69686 14.2203 5.84026 15.9989 5.84026C17.7776 5.84026 21.5912 5.69686 23.196 6.33145C23.7513 6.55416 24.1662 6.82264 24.5933 7.25282C25.0235 7.683 25.292 8.09487 25.5147 8.65013C26.1493 10.2549 26.0059 14.0685 26.0059 15.8472C26.0059 17.6259 26.1493 21.4364 25.5116 23.0412Z" fill="#0057FB"/>
</svg>
