<svg width="32" height="32" viewBox="0 0 32 32" fill="none" xmlns="http://www.w3.org/2000/svg">
<path d="M6.63722 9.59523C8.21021 9.59523 9.48537 8.32007 9.48537 6.74708C9.48537 5.17409 8.21021 3.89893 6.63722 3.89893C5.06422 3.89893 3.78906 5.17409 3.78906 6.74708C3.78906 8.32007 5.06422 9.59523 6.63722 9.59523Z" fill="#0057FB"/>
<path d="M12.1748 11.7533V27.5548H17.081V19.7406C17.081 17.6787 17.4689 15.6819 20.0255 15.6819C22.5469 15.6819 22.5781 18.0393 22.5781 19.8708V27.5561H27.4869V18.8906C27.4869 14.634 26.5705 11.3628 21.5953 11.3628C19.2067 11.3628 17.6056 12.6736 16.9508 13.9142H16.8844V11.7533H12.1748ZM4.17969 11.7533H9.09366V27.5548H4.17969V11.7533Z" fill="#0057FB"/>
</svg>
