<svg width="541" height="525" viewBox="0 0 541 525" fill="none" xmlns="http://www.w3.org/2000/svg">
<rect x="0.398438" y="91.3696" width="539.797" height="433.436" rx="16" fill="#2F80ED"/>
<g clip-path="url(#clip0_0_1135)">
<rect x="80.7969" y="0.567139" width="379" height="249" rx="8" fill="white"/>
<path d="M199.603 24.9315V23.3853H207.726V24.9315H204.579V33.5671H202.75V24.9315H199.603ZM210.371 33.7213C209.887 33.7213 209.451 33.6351 209.064 33.4627C208.679 33.2871 208.374 33.0285 208.149 32.6872C207.927 32.3458 207.816 31.9249 207.816 31.4244C207.816 30.9935 207.895 30.6372 208.054 30.3555C208.214 30.0738 208.431 29.8484 208.706 29.6794C208.981 29.5103 209.291 29.3827 209.635 29.2965C209.983 29.2071 210.343 29.1424 210.714 29.1026C211.162 29.0562 211.525 29.0148 211.803 28.9784C212.081 28.9386 212.284 28.8789 212.41 28.7994C212.539 28.7165 212.603 28.5889 212.603 28.4166V28.3867C212.603 28.0122 212.492 27.7222 212.27 27.5167C212.048 27.3112 211.728 27.2085 211.311 27.2085C210.87 27.2085 210.52 27.3046 210.262 27.4968C210.007 27.6891 209.834 27.9161 209.745 28.1779L208.064 27.9393C208.197 27.4753 208.416 27.0875 208.721 26.7759C209.026 26.4611 209.398 26.2258 209.839 26.07C210.28 25.9109 210.767 25.8313 211.301 25.8313C211.669 25.8313 212.035 25.8744 212.4 25.9606C212.764 26.0468 213.097 26.1893 213.399 26.3882C213.7 26.5837 213.942 26.8505 214.125 27.1886C214.31 27.5267 214.403 27.9492 214.403 28.4563V33.5671H212.673V32.5181H212.613C212.504 32.7303 212.35 32.9291 212.151 33.1147C211.955 33.297 211.709 33.4445 211.41 33.5572C211.115 33.6666 210.769 33.7213 210.371 33.7213ZM210.839 32.3988C211.2 32.3988 211.513 32.3276 211.778 32.185C212.043 32.0392 212.247 31.847 212.39 31.6083C212.535 31.3697 212.608 31.1095 212.608 30.8278V29.9279C212.552 29.9743 212.456 30.0174 212.32 30.0572C212.187 30.097 212.038 30.1318 211.873 30.1616C211.707 30.1914 211.543 30.2179 211.38 30.2411C211.218 30.2643 211.077 30.2842 210.958 30.3008C210.689 30.3373 210.449 30.3969 210.237 30.4798C210.025 30.5626 209.857 30.6786 209.735 30.8278C209.612 30.9736 209.551 31.1625 209.551 31.3946C209.551 31.726 209.672 31.9762 209.914 32.1453C210.156 32.3143 210.464 32.3988 210.839 32.3988ZM222.248 27.9492L220.608 28.1282C220.561 27.9625 220.48 27.8067 220.364 27.6609C220.251 27.5151 220.099 27.3974 219.907 27.3079C219.714 27.2184 219.479 27.1737 219.201 27.1737C218.826 27.1737 218.511 27.2549 218.256 27.4173C218.004 27.5797 217.88 27.7901 217.883 28.0487C217.88 28.2707 217.961 28.4514 218.127 28.5906C218.296 28.7298 218.574 28.8441 218.962 28.9336L220.265 29.212C220.987 29.3678 221.524 29.6147 221.875 29.9528C222.23 30.2909 222.409 30.7333 222.412 31.2802C222.409 31.7608 222.268 32.185 221.99 32.5529C221.715 32.9175 221.332 33.2026 220.841 33.408C220.351 33.6135 219.787 33.7163 219.151 33.7163C218.216 33.7163 217.464 33.5207 216.894 33.1296C216.324 32.7352 215.984 32.1867 215.875 31.484L217.63 31.315C217.709 31.6597 217.878 31.9199 218.137 32.0955C218.395 32.2712 218.732 32.359 219.146 32.359C219.574 32.359 219.917 32.2712 220.175 32.0955C220.437 31.9199 220.568 31.7028 220.568 31.4443C220.568 31.2255 220.483 31.0449 220.314 30.9024C220.149 30.7598 219.89 30.6505 219.539 30.5742L218.236 30.3008C217.504 30.1483 216.962 29.8915 216.611 29.5302C216.259 29.1656 216.085 28.7049 216.089 28.1481C216.085 27.6775 216.213 27.2698 216.471 26.9251C216.733 26.5771 217.096 26.3086 217.56 26.1197C218.027 25.9275 218.566 25.8313 219.176 25.8313C220.071 25.8313 220.775 26.0219 221.289 26.4031C221.806 26.7842 222.126 27.2996 222.248 27.9492ZM225.537 31.1708L225.532 28.9982H225.82L228.565 25.9308H230.668L227.292 29.6893H226.919L225.537 31.1708ZM223.896 33.5671V23.3853H225.696V33.5671H223.896ZM228.689 33.5671L226.203 30.092L227.416 28.8242L230.842 33.5671H228.689ZM244.134 26.8207H242.275C242.222 26.5158 242.124 26.2456 241.982 26.0103C241.839 25.7717 241.662 25.5695 241.45 25.4038C241.238 25.2381 240.996 25.1138 240.724 25.0309C240.456 24.9447 240.166 24.9017 239.854 24.9017C239.3 24.9017 238.81 25.0409 238.382 25.3193C237.955 25.5944 237.62 25.9987 237.378 26.5323C237.136 27.0626 237.015 27.7106 237.015 28.4762C237.015 29.2551 237.136 29.9114 237.378 30.445C237.623 30.9753 237.958 31.3763 238.382 31.6481C238.81 31.9166 239.299 32.0508 239.849 32.0508C240.154 32.0508 240.439 32.011 240.704 31.9315C240.973 31.8486 241.213 31.7276 241.425 31.5686C241.64 31.4095 241.821 31.2139 241.967 30.9819C242.116 30.7499 242.219 30.4848 242.275 30.1865L244.134 30.1964C244.065 30.6803 243.914 31.1344 243.682 31.5586C243.453 31.9829 243.153 32.3574 242.782 32.6822C242.411 33.0037 241.977 33.2556 241.48 33.4379C240.983 33.6169 240.431 33.7063 239.824 33.7063C238.929 33.7063 238.13 33.4992 237.428 33.0849C236.725 32.6706 236.172 32.0723 235.767 31.2902C235.363 30.508 235.161 29.57 235.161 28.4762C235.161 27.3792 235.365 26.4412 235.772 25.6623C236.18 24.8801 236.735 24.2819 237.438 23.8676C238.14 23.4533 238.936 23.2461 239.824 23.2461C240.391 23.2461 240.918 23.3257 241.405 23.4848C241.892 23.6438 242.326 23.8775 242.708 24.1857C243.089 24.4907 243.402 24.8652 243.647 25.3093C243.896 25.7501 244.058 26.2539 244.134 26.8207ZM249.075 33.7163C248.329 33.7163 247.683 33.5522 247.136 33.2241C246.589 32.896 246.165 32.4369 245.863 31.847C245.565 31.257 245.416 30.5676 245.416 29.7788C245.416 28.99 245.565 28.2989 245.863 27.7056C246.165 27.1124 246.589 26.6517 247.136 26.3235C247.683 25.9954 248.329 25.8313 249.075 25.8313C249.821 25.8313 250.467 25.9954 251.014 26.3235C251.561 26.6517 251.983 27.1124 252.282 27.7056C252.583 28.2989 252.734 28.99 252.734 29.7788C252.734 30.5676 252.583 31.257 252.282 31.847C251.983 32.4369 251.561 32.896 251.014 33.2241C250.467 33.5522 249.821 33.7163 249.075 33.7163ZM249.085 32.2745C249.489 32.2745 249.827 32.1635 250.099 31.9414C250.371 31.716 250.573 31.4144 250.706 31.0366C250.842 30.6588 250.91 30.2378 250.91 29.7738C250.91 29.3065 250.842 28.8839 250.706 28.5061C250.573 28.1249 250.371 27.8216 250.099 27.5963C249.827 27.3709 249.489 27.2582 249.085 27.2582C248.671 27.2582 248.326 27.3709 248.051 27.5963C247.779 27.8216 247.575 28.1249 247.439 28.5061C247.307 28.8839 247.241 29.3065 247.241 29.7738C247.241 30.2378 247.307 30.6588 247.439 31.0366C247.575 31.4144 247.779 31.716 248.051 31.9414C248.326 32.1635 248.671 32.2745 249.085 32.2745ZM259.129 30.3555V25.9308H260.929V33.5671H259.184V32.2099H259.104C258.932 32.6375 258.648 32.9871 258.254 33.2589C257.863 33.5307 257.38 33.6666 256.807 33.6666C256.307 33.6666 255.864 33.5555 255.48 33.3335C255.099 33.1081 254.8 32.7816 254.585 32.3541C254.369 31.9232 254.262 31.4028 254.262 30.793V25.9308H256.061V30.5146C256.061 30.9985 256.194 31.383 256.459 31.668C256.724 31.953 257.072 32.0955 257.503 32.0955C257.768 32.0955 258.025 32.0309 258.274 31.9017C258.522 31.7724 258.726 31.5802 258.885 31.325C259.048 31.0664 259.129 30.7433 259.129 30.3555ZM264.579 29.0927V33.5671H262.779V25.9308H264.499V27.2284H264.589C264.765 26.8008 265.045 26.4611 265.429 26.2092C265.817 25.9573 266.296 25.8313 266.866 25.8313C267.393 25.8313 267.852 25.944 268.243 26.1694C268.637 26.3948 268.942 26.7213 269.158 27.1488C269.377 27.5764 269.484 28.0951 269.481 28.7049V33.5671H267.681V28.9833C267.681 28.4729 267.549 28.0735 267.283 27.7852C267.022 27.4968 266.659 27.3526 266.195 27.3526C265.88 27.3526 265.6 27.4223 265.354 27.5615C265.113 27.6973 264.922 27.8946 264.783 28.1531C264.647 28.4116 264.579 28.7248 264.579 29.0927ZM275.124 25.9308V27.3228H270.734V25.9308H275.124ZM271.818 24.1012H273.617V31.2703C273.617 31.5122 273.654 31.6978 273.727 31.8271C273.803 31.953 273.902 32.0392 274.025 32.0856C274.148 32.132 274.283 32.1552 274.433 32.1552C274.545 32.1552 274.648 32.1469 274.741 32.1303C274.837 32.1138 274.91 32.0989 274.96 32.0856L275.263 33.4926C275.167 33.5257 275.029 33.5622 274.85 33.6019C274.675 33.6417 274.459 33.6649 274.204 33.6715C273.753 33.6848 273.347 33.6169 272.986 33.4677C272.625 33.3152 272.338 33.0799 272.126 32.7617C271.917 32.4436 271.814 32.0458 271.818 31.5686V24.1012ZM280.181 33.5671V23.3853H281.981V27.1936H282.055C282.148 27.008 282.279 26.8107 282.448 26.6019C282.617 26.3898 282.846 26.2092 283.134 26.06C283.422 25.9076 283.79 25.8313 284.238 25.8313C284.828 25.8313 285.36 25.9821 285.834 26.2838C286.311 26.5821 286.689 27.0245 286.967 27.6112C287.249 28.1945 287.39 28.9104 287.39 29.7589C287.39 30.5974 287.252 31.31 286.977 31.8967C286.702 32.4833 286.328 32.9308 285.854 33.239C285.38 33.5473 284.843 33.7014 284.243 33.7014C283.805 33.7014 283.442 33.6285 283.154 33.4826C282.866 33.3368 282.634 33.1611 282.458 32.9556C282.286 32.7468 282.151 32.5496 282.055 32.364H281.951V33.5671H280.181ZM281.946 29.749C281.946 30.2428 282.016 30.6753 282.155 31.0465C282.297 31.4178 282.501 31.7078 282.766 31.9166C283.035 32.1221 283.36 32.2248 283.741 32.2248C284.138 32.2248 284.472 32.1187 284.74 31.9066C285.008 31.6912 285.211 31.3979 285.347 31.0267C285.486 30.6521 285.555 30.2262 285.555 29.749C285.555 29.275 285.487 28.8541 285.351 28.4862C285.216 28.1183 285.013 27.8299 284.745 27.6211C284.476 27.4123 284.142 27.3079 283.741 27.3079C283.356 27.3079 283.03 27.409 282.761 27.6112C282.493 27.8134 282.289 28.0967 282.15 28.4613C282.014 28.8259 281.946 29.2551 281.946 29.749ZM289.779 36.4308C289.533 36.4308 289.306 36.4109 289.098 36.3711C288.892 36.3347 288.728 36.2916 288.605 36.2419L289.023 34.8399C289.285 34.9161 289.518 34.9526 289.724 34.9492C289.929 34.9459 290.11 34.8813 290.266 34.7553C290.425 34.6327 290.559 34.4272 290.669 34.1389L290.823 33.7262L288.054 25.9308H289.963L291.723 31.6978H291.802L293.567 25.9308H295.481L292.424 34.4919C292.281 34.8962 292.092 35.2426 291.857 35.5309C291.621 35.8226 291.333 36.0446 290.992 36.1971C290.654 36.3529 290.249 36.4308 289.779 36.4308ZM300.279 33.5671V23.3853H306.801V24.9315H302.123V27.6957H306.354V29.2419H302.123V33.5671H300.279ZM308.402 33.5671V25.9308H310.202V33.5671H308.402ZM309.307 24.847C309.022 24.847 308.777 24.7525 308.571 24.5636C308.366 24.3714 308.263 24.141 308.263 23.8725C308.263 23.6008 308.366 23.3704 308.571 23.1815C308.777 22.9892 309.022 22.8931 309.307 22.8931C309.595 22.8931 309.841 22.9892 310.043 23.1815C310.248 23.3704 310.351 23.6008 310.351 23.8725C310.351 24.141 310.248 24.3714 310.043 24.5636C309.841 24.7525 309.595 24.847 309.307 24.847ZM313.852 23.3853V33.5671H312.053V23.3853H313.852ZM319.516 25.9308V27.3228H315.126V25.9308H319.516ZM316.21 24.1012H318.01V31.2703C318.01 31.5122 318.046 31.6978 318.119 31.8271C318.195 31.953 318.295 32.0392 318.418 32.0856C318.54 32.132 318.676 32.1552 318.825 32.1552C318.938 32.1552 319.041 32.1469 319.133 32.1303C319.23 32.1138 319.302 32.0989 319.352 32.0856L319.655 33.4926C319.559 33.5257 319.422 33.5622 319.243 33.6019C319.067 33.6417 318.852 33.6649 318.597 33.6715C318.146 33.6848 317.74 33.6169 317.378 33.4677C317.017 33.3152 316.73 33.0799 316.518 32.7617C316.31 32.4436 316.207 32.0458 316.21 31.5686V24.1012ZM324.32 33.7163C323.554 33.7163 322.893 33.5572 322.336 33.239C321.783 32.9175 321.357 32.4634 321.059 31.8768C320.76 31.2868 320.611 30.5925 320.611 29.7937C320.611 29.0082 320.76 28.3188 321.059 27.7255C321.36 27.1289 321.781 26.6649 322.321 26.3335C322.862 25.9987 323.496 25.8313 324.226 25.8313C324.696 25.8313 325.14 25.9076 325.558 26.06C325.979 26.2092 326.35 26.4412 326.672 26.7561C326.996 27.0709 327.252 27.472 327.437 27.9592C327.623 28.4431 327.716 29.0198 327.716 29.6893V30.2411H321.456V29.0281H325.991C325.987 28.6834 325.913 28.3768 325.767 28.1083C325.621 27.8366 325.417 27.6228 325.155 27.467C324.897 27.3112 324.595 27.2333 324.25 27.2333C323.883 27.2333 323.559 27.3228 323.281 27.5018C323.003 27.6775 322.785 27.9095 322.63 28.1978C322.477 28.4829 322.399 28.7961 322.396 29.1375V30.1964C322.396 30.6405 322.477 31.0217 322.64 31.3399C322.802 31.6547 323.029 31.8967 323.321 32.0657C323.612 32.2314 323.954 32.3143 324.345 32.3143C324.607 32.3143 324.844 32.2778 325.056 32.2049C325.268 32.1287 325.452 32.0177 325.608 31.8718C325.763 31.726 325.881 31.5454 325.961 31.3299L327.641 31.5188C327.535 31.963 327.333 32.3508 327.035 32.6822C326.74 33.0103 326.362 33.2655 325.901 33.4478C325.44 33.6268 324.913 33.7163 324.32 33.7163ZM329.238 33.5671V25.9308H330.983V27.2035H331.063C331.202 26.7627 331.441 26.423 331.779 26.1843C332.12 25.9424 332.509 25.8214 332.947 25.8214C333.046 25.8214 333.157 25.8264 333.28 25.8363C333.406 25.8429 333.51 25.8545 333.593 25.8711V27.5267C333.517 27.5001 333.396 27.4769 333.23 27.4571C333.068 27.4339 332.911 27.4223 332.758 27.4223C332.43 27.4223 332.135 27.4935 331.873 27.636C331.615 27.7752 331.411 27.9691 331.262 28.2177C331.112 28.4663 331.038 28.753 331.038 29.0778V33.5671H329.238ZM340.824 27.9492L339.184 28.1282C339.137 27.9625 339.056 27.8067 338.94 27.6609C338.828 27.5151 338.675 27.3974 338.483 27.3079C338.291 27.2184 338.055 27.1737 337.777 27.1737C337.402 27.1737 337.088 27.2549 336.832 27.4173C336.58 27.5797 336.456 27.7901 336.459 28.0487C336.456 28.2707 336.537 28.4514 336.703 28.5906C336.872 28.7298 337.15 28.8441 337.538 28.9336L338.841 29.212C339.563 29.3678 340.1 29.6147 340.452 29.9528C340.806 30.2909 340.985 30.7333 340.989 31.2802C340.985 31.7608 340.844 32.185 340.566 32.5529C340.291 32.9175 339.908 33.2026 339.418 33.408C338.927 33.6135 338.364 33.7163 337.727 33.7163C336.793 33.7163 336.04 33.5207 335.47 33.1296C334.9 32.7352 334.56 32.1867 334.451 31.484L336.206 31.315C336.285 31.6597 336.454 31.9199 336.713 32.0955C336.972 32.2712 337.308 32.359 337.722 32.359C338.15 32.359 338.493 32.2712 338.751 32.0955C339.013 31.9199 339.144 31.7028 339.144 31.4443C339.144 31.2255 339.06 31.0449 338.891 30.9024C338.725 30.7598 338.466 30.6505 338.115 30.5742L336.812 30.3008C336.08 30.1483 335.538 29.8915 335.187 29.5302C334.835 29.1656 334.661 28.7049 334.665 28.1481C334.661 27.6775 334.789 27.2698 335.047 26.9251C335.309 26.5771 335.672 26.3086 336.136 26.1197C336.604 25.9275 337.142 25.8313 337.752 25.8313C338.647 25.8313 339.351 26.0219 339.865 26.4031C340.382 26.7842 340.702 27.2996 340.824 27.9492Z" fill="#222222"/>
<path d="M118.798 198.567H428.798" stroke="#DDDDDD" stroke-width="0.82"/>
<path d="M148.911 203.787V198.867" stroke="black" stroke-width="0.82"/>
<path d="M142.899 218.406L143.777 215.934H147.305L148.183 218.406H149.291L146.086 209.679H144.995L141.791 218.406H142.899ZM144.109 214.997L145.507 211.059H145.575L146.973 214.997H144.109ZM151.52 209.679H150.514V218.406H151.52V209.679ZM154.367 209.679H153.362V218.406H154.367V209.679Z" fill="black"/>
<path d="M195.756 209.679H194.699V218.406H195.756V209.679ZM198.744 214.468C198.744 213.326 199.451 212.679 200.414 212.679C201.348 212.679 201.914 213.288 201.914 214.315V218.406H202.92V214.247C202.92 212.576 202.029 211.775 200.704 211.775C199.715 211.775 199.102 212.218 198.795 212.883H198.71V211.86H197.738V218.406H198.744V214.468ZM204.894 218.406H205.866V217.4H205.985C206.207 217.758 206.633 218.542 207.894 218.542C209.53 218.542 210.672 217.23 210.672 215.15C210.672 213.088 209.53 211.775 207.877 211.775C206.599 211.775 206.207 212.559 205.985 212.9H205.9V209.679H204.894V218.406ZM205.883 215.133C205.883 213.667 206.53 212.679 207.758 212.679C209.036 212.679 209.667 213.752 209.667 215.133C209.667 216.531 209.019 217.639 207.758 217.639C206.547 217.639 205.883 216.616 205.883 215.133ZM214.87 218.542C216.643 218.542 217.836 217.196 217.836 215.167C217.836 213.122 216.643 211.775 214.87 211.775C213.097 211.775 211.904 213.122 211.904 215.167C211.904 217.196 213.097 218.542 214.87 218.542ZM214.87 217.639C213.523 217.639 212.91 216.48 212.91 215.167C212.91 213.855 213.523 212.679 214.87 212.679C216.217 212.679 216.83 213.855 216.83 215.167C216.83 216.48 216.217 217.639 214.87 217.639ZM219.851 211.86H218.692L220.772 215.133L218.692 218.406H219.851L221.42 215.866L222.988 218.406H224.147L222.033 215.133L224.147 211.86H222.988L221.42 214.536L219.851 211.86Z" fill="black"/>
<path d="M263.95 211.861H264.973C264.926 210.544 263.712 209.559 262.024 209.559C260.354 209.559 259.041 210.531 259.041 211.997C259.041 213.173 259.894 213.872 261.257 214.264L262.331 214.571C263.252 214.826 264.07 215.15 264.07 216.02C264.07 216.974 263.149 217.605 261.939 217.605C260.899 217.605 259.979 217.145 259.894 216.156H258.803C258.905 217.588 260.064 218.559 261.939 218.559C263.95 218.559 265.092 217.451 265.092 216.037C265.092 214.4 263.541 213.872 262.638 213.633L261.752 213.395C261.104 213.224 260.064 212.883 260.064 211.946C260.064 211.111 260.831 210.497 261.99 210.497C263.047 210.497 263.848 211 263.95 211.861ZM269.438 218.542C270.768 218.542 271.739 217.878 272.046 216.889L271.074 216.616C270.819 217.298 270.226 217.639 269.438 217.639C268.258 217.639 267.444 216.876 267.397 215.474H272.148V215.048C272.148 212.611 270.699 211.775 269.336 211.775C267.563 211.775 266.387 213.173 266.387 215.184C266.387 217.196 267.546 218.542 269.438 218.542ZM267.397 214.605C267.465 213.586 268.185 212.679 269.336 212.679C270.427 212.679 271.125 213.497 271.125 214.605H267.397ZM274.684 214.469C274.684 213.326 275.391 212.679 276.354 212.679C277.287 212.679 277.854 213.288 277.854 214.315V218.406H278.86V214.247C278.86 212.576 277.969 211.775 276.644 211.775C275.655 211.775 275.042 212.219 274.735 212.883H274.65V211.861H273.678V218.406H274.684V214.469ZM283.544 211.861H282.146V210.292H281.141V211.861H280.152V212.713H281.141V216.804C281.141 217.946 282.061 218.491 282.913 218.491C283.288 218.491 283.527 218.423 283.663 218.372L283.459 217.469C283.374 217.486 283.237 217.52 283.016 217.52C282.573 217.52 282.146 217.383 282.146 216.531V212.713H283.544V211.861Z" fill="black"/>
<path d="M319.461 212.406C319.137 210.616 317.705 209.559 315.95 209.559C313.717 209.559 312.098 211.281 312.098 214.042C312.098 216.804 313.717 218.525 315.95 218.525C317.705 218.525 319.137 217.468 319.461 215.679H318.404C318.149 216.889 317.109 217.536 315.95 217.536C314.365 217.536 313.12 216.309 313.12 214.042C313.12 211.775 314.365 210.548 315.95 210.548C317.109 210.548 318.149 211.196 318.404 212.406H319.461ZM322.038 209.679H321.033V218.406H322.038V209.679ZM326.539 218.542C328.312 218.542 329.505 217.196 329.505 215.167C329.505 213.122 328.312 211.775 326.539 211.775C324.767 211.775 323.573 213.122 323.573 215.167C323.573 217.196 324.767 218.542 326.539 218.542ZM326.539 217.639C325.193 217.639 324.579 216.48 324.579 215.167C324.579 213.855 325.193 212.679 326.539 212.679C327.886 212.679 328.499 213.855 328.499 215.167C328.499 216.48 327.886 217.639 326.539 217.639ZM335.677 213.326C335.361 212.397 334.654 211.775 333.359 211.775C331.978 211.775 330.955 212.559 330.955 213.667C330.955 214.571 331.492 215.176 332.694 215.457L333.785 215.713C334.445 215.866 334.756 216.181 334.756 216.633C334.756 217.196 334.16 217.656 333.222 217.656C332.4 217.656 331.884 217.302 331.705 216.599L330.751 216.838C330.985 217.95 331.901 218.542 333.239 218.542C334.76 218.542 335.796 217.711 335.796 216.582C335.796 215.67 335.225 215.095 334.057 214.809L333.086 214.571C332.31 214.379 331.961 214.119 331.961 213.616C331.961 213.054 332.557 212.644 333.359 212.644C334.236 212.644 334.599 213.13 334.773 213.582L335.677 213.326ZM340.054 218.542C341.384 218.542 342.355 217.877 342.662 216.889L341.691 216.616C341.435 217.298 340.843 217.639 340.054 217.639C338.874 217.639 338.06 216.876 338.013 215.474H342.764V215.048C342.764 212.61 341.316 211.775 339.952 211.775C338.179 211.775 337.003 213.173 337.003 215.184C337.003 217.196 338.162 218.542 340.054 218.542ZM338.013 214.605C338.081 213.586 338.801 212.679 339.952 212.679C341.043 212.679 341.742 213.497 341.742 214.605H338.013ZM346.766 218.542C348.027 218.542 348.453 217.758 348.675 217.4H348.794V218.406H349.766V209.679H348.76V212.9H348.675C348.453 212.559 348.061 211.775 346.783 211.775C345.129 211.775 343.987 213.088 343.987 215.15C343.987 217.23 345.129 218.542 346.766 218.542ZM346.902 217.639C345.641 217.639 344.993 216.531 344.993 215.133C344.993 213.752 345.624 212.679 346.902 212.679C348.129 212.679 348.777 213.667 348.777 215.133C348.777 216.616 348.112 217.639 346.902 217.639Z" fill="black"/>
<path d="M210.009 203.787V198.867" stroke="black" stroke-width="0.82"/>
<path d="M271.107 203.787V198.867" stroke="black" stroke-width="0.82"/>
<path d="M332.205 203.787V198.867" stroke="black" stroke-width="0.82"/>
<path d="M393.205 203.787V198.867" stroke="black" stroke-width="0.82"/>
<path d="M118.362 67.6671V198.867" stroke="black" stroke-width="0.82"/>
<path d="M115.911 198.867H118.363" stroke="black" stroke-width="0.82"/>
<path d="M108.892 203.094C110.497 203.094 111.42 201.734 111.42 199.359C111.42 197.001 110.483 195.623 108.892 195.623C107.301 195.623 106.363 197.001 106.363 199.359C106.363 201.734 107.287 203.094 108.892 203.094ZM108.892 202.313C107.834 202.313 107.216 201.251 107.216 199.359C107.216 197.469 107.841 196.39 108.892 196.39C109.943 196.39 110.568 197.469 110.568 199.359C110.568 201.251 109.95 202.313 108.892 202.313Z" fill="black"/>
<path d="M115.91 166.067H118.362" stroke="black" stroke-width="0.82"/>
<path d="M109.61 170.294C110.995 170.294 112.01 169.272 112.01 167.879C112.01 166.47 111.03 165.436 109.695 165.436C109.205 165.436 108.729 165.61 108.431 165.848H108.388L108.644 163.703H111.684V162.922H107.905L107.465 166.502L108.289 166.601C108.591 166.384 109.105 166.228 109.553 166.232C110.48 166.239 111.158 166.942 111.158 167.894C111.158 168.828 110.505 169.513 109.61 169.513C108.864 169.513 108.271 169.034 108.203 168.377H107.351C107.404 169.485 108.36 170.294 109.61 170.294Z" fill="black"/>
<path d="M115.909 133.267H118.361" stroke="black" stroke-width="0.82"/>
<path d="M104.956 129.778H104.076L102.257 130.986V131.881L104.033 130.702H104.076V137.051H104.956V129.778ZM109.42 137.15C111.025 137.15 111.949 135.79 111.949 133.415C111.949 131.057 111.011 129.679 109.42 129.679C107.829 129.679 106.892 131.057 106.892 133.415C106.892 135.79 107.815 137.15 109.42 137.15ZM109.42 136.369C108.362 136.369 107.744 135.307 107.744 133.415C107.744 131.525 108.369 130.446 109.42 130.446C110.471 130.446 111.096 131.525 111.096 133.415C111.096 135.307 110.478 136.369 109.42 136.369Z" fill="black"/>
<path d="M115.91 100.467H118.362" stroke="black" stroke-width="0.82"/>
<path d="M104.799 97.3221H103.919L102.1 98.5295V99.4244L103.876 98.2454H103.919V104.595H104.799V97.3221ZM109.164 104.694C110.549 104.694 111.564 103.672 111.564 102.28C111.564 100.87 110.584 99.8363 109.249 99.8363C108.759 99.8363 108.283 100.01 107.985 100.248H107.942L108.198 98.1034H111.237V97.3221H107.459L107.019 100.902L107.843 101.001C108.144 100.784 108.659 100.628 109.107 100.632C110.034 100.639 110.712 101.342 110.712 102.294C110.712 103.228 110.059 103.913 109.164 103.913C108.418 103.913 107.825 103.434 107.757 102.777H106.905C106.958 103.885 107.914 104.694 109.164 104.694Z" fill="black"/>
<path d="M115.91 67.6671H118.363" stroke="black" stroke-width="0.82"/>
<path d="M100.736 71.2711H105.324V70.4899H101.944V70.433L103.577 68.6859C104.827 67.3471 105.197 66.7221 105.197 65.916C105.197 64.7938 104.288 63.899 103.009 63.899C101.734 63.899 100.765 64.7654 100.765 66.0438H101.603C101.603 65.2164 102.139 64.666 102.981 64.666C103.769 64.666 104.373 65.149 104.373 65.916C104.373 66.5872 103.979 67.0843 103.137 68.0041L100.736 70.6319V71.2711ZM109.163 71.3705C110.768 71.3705 111.692 70.0105 111.692 67.6348C111.692 65.2768 110.754 63.899 109.163 63.899C107.572 63.899 106.635 65.2768 106.635 67.6348C106.635 70.0105 107.558 71.3705 109.163 71.3705ZM109.163 70.5893C108.105 70.5893 107.487 69.5275 107.487 67.6348C107.487 65.7456 108.112 64.666 109.163 64.666C110.214 64.666 110.839 65.7456 110.839 67.6348C110.839 69.5275 110.222 70.5893 109.163 70.5893Z" fill="black"/>
<path d="M118.798 166.567H428.798" stroke="#DDDDDD" stroke-width="0.82"/>
<path d="M118.798 133.567H428.798" stroke="#DDDDDD" stroke-width="0.82"/>
<path d="M118.798 100.567H428.798" stroke="#DDDDDD" stroke-width="0.82"/>
<path d="M118.798 67.5671H428.798" stroke="#DDDDDD" stroke-width="0.82"/>
<path d="M148.911 67.6671V198.867" stroke="#DDDDDD" stroke-width="0.82"/>
<path d="M210.01 67.6671V198.867" stroke="#DDDDDD" stroke-width="0.82"/>
<path d="M271.107 67.6671V198.867" stroke="#DDDDDD" stroke-width="0.82"/>
<path d="M332.206 67.6671V198.867" stroke="#DDDDDD" stroke-width="0.82"/>
<path d="M393.206 67.6671V198.867" stroke="#DDDDDD" stroke-width="0.82"/>
<path d="M118.362 67.6671V198.867" stroke="#DDDDDD" stroke-width="0.82"/>
<path d="M428.755 67.6671V198.867" stroke="#DDDDDD" stroke-width="0.82"/>
<path d="M136.798 90.5671H160.798V198.567H136.798V90.5671Z" fill="#0077D7"/>
<path d="M198.798 166.567H222.798V198.567H198.798V166.567Z" fill="#BB6BD9"/>
<path d="M258.798 177.567H282.798V198.567H258.798V177.567Z" fill="#EFB806"/>
<path d="M319.798 160.567H343.798V198.567H319.798V160.567Z" fill="#16C35F"/>
<path d="M380.798 166.567H404.798V198.567H380.798V166.567Z" fill="#EB5757"/>
<path d="M377.595 213.204C377.595 210.442 375.976 208.721 373.743 208.721C371.51 208.721 369.891 210.442 369.891 213.204C369.891 215.965 371.51 217.686 373.743 217.686C375.976 217.686 377.595 215.965 377.595 213.204ZM376.573 213.204C376.573 215.471 375.328 216.698 373.743 216.698C372.158 216.698 370.913 215.471 370.913 213.204C370.913 210.936 372.158 209.709 373.743 209.709C375.328 209.709 376.573 210.936 376.573 213.204ZM384.588 211.022H383.497L381.69 216.238H381.622L379.815 211.022H378.725L381.145 217.567H382.168L384.588 211.022ZM388.426 217.704C389.755 217.704 390.727 217.039 391.033 216.05L390.062 215.777C389.806 216.459 389.214 216.8 388.426 216.8C387.245 216.8 386.431 216.037 386.384 214.635H391.136V214.209C391.136 211.772 389.687 210.936 388.323 210.936C386.551 210.936 385.374 212.334 385.374 214.346C385.374 216.357 386.533 217.704 388.426 217.704ZM386.384 213.766C386.453 212.748 387.173 211.84 388.323 211.84C389.414 211.84 390.113 212.658 390.113 213.766H386.384ZM392.666 217.567H393.671V213.425C393.671 212.539 394.37 211.891 395.325 211.891C395.593 211.891 395.87 211.942 395.938 211.959V210.936C395.823 210.928 395.559 210.919 395.41 210.919C394.626 210.919 393.944 211.363 393.705 212.01H393.637V211.022H392.666V217.567ZM399.403 217.704C400.664 217.704 401.09 216.919 401.312 216.561H401.431V217.567H402.403V208.84H401.397V212.061H401.312C401.09 211.721 400.698 210.936 399.42 210.936C397.766 210.936 396.624 212.249 396.624 214.311C396.624 216.391 397.766 217.704 399.403 217.704ZM399.539 216.8C398.278 216.8 397.63 215.692 397.63 214.294C397.63 212.914 398.261 211.84 399.539 211.84C400.766 211.84 401.414 212.829 401.414 214.294C401.414 215.777 400.749 216.8 399.539 216.8ZM408.509 214.891C408.509 216.118 407.572 216.681 406.822 216.681C405.987 216.681 405.39 216.067 405.39 215.113V211.022H404.384V215.181C404.384 216.851 405.271 217.652 406.498 217.652C407.487 217.652 408.134 217.124 408.441 216.459H408.509V217.567H409.515V211.022H408.509V214.891ZM414.101 217.704C415.431 217.704 416.402 217.039 416.709 216.05L415.738 215.777C415.482 216.459 414.89 216.8 414.101 216.8C412.921 216.8 412.107 216.037 412.06 214.635H416.812V214.209C416.812 211.772 415.363 210.936 413.999 210.936C412.226 210.936 411.05 212.334 411.05 214.346C411.05 216.357 412.209 217.704 414.101 217.704ZM412.06 213.766C412.128 212.748 412.848 211.84 413.999 211.84C415.09 211.84 415.789 212.658 415.789 213.766H412.06Z" fill="black"/>
<path d="M146.427 78.2944H145.546L143.728 79.5018V80.3967L145.504 79.2177H145.546V85.5671H146.427V78.2944ZM148.746 85.5671H149.669L152.908 79.1183V78.2944H148.249V79.0757H151.999V79.1325L148.746 85.5671Z" fill="black"/>
<path d="M209.281 161.667C210.666 161.667 211.682 160.644 211.682 159.252C211.682 157.842 210.702 156.809 209.367 156.809C208.877 156.809 208.401 156.983 208.102 157.221H208.06L208.316 155.076H211.355V154.294H207.577L207.137 157.874L207.96 157.973C208.262 157.757 208.777 157.601 209.225 157.604C210.151 157.611 210.83 158.314 210.83 159.266C210.83 160.2 210.176 160.885 209.281 160.885C208.536 160.885 207.943 160.406 207.875 159.749H207.023C207.076 160.857 208.031 161.667 209.281 161.667Z" fill="black"/>
<path d="M271.324 171.667C272.734 171.667 273.782 170.782 273.782 169.593C273.782 168.669 273.235 167.998 272.319 167.846V167.789C273.054 167.565 273.512 166.961 273.512 166.141C273.512 165.111 272.699 164.195 271.353 164.195C270.096 164.195 269.052 164.969 269.009 166.113H269.861C269.893 165.388 270.582 164.962 271.339 164.962C272.141 164.962 272.66 165.449 272.66 166.184C272.66 166.951 272.06 167.448 271.197 167.448H270.614V168.229H271.197C272.301 168.229 272.915 168.79 272.915 169.593C272.915 170.363 272.244 170.885 271.31 170.885C270.469 170.885 269.801 170.452 269.748 169.749H268.853C268.906 170.892 269.915 171.667 271.324 171.667Z" fill="black"/>
<path d="M332.345 153.667C333.816 153.684 334.774 152.576 334.774 151.223C334.774 149.817 333.734 148.809 332.487 148.809C331.738 148.809 331.095 149.174 330.698 149.775H330.641C330.644 148.003 331.333 146.976 332.459 146.976C333.226 146.976 333.688 147.459 333.851 148.113H334.718C334.54 146.983 333.681 146.195 332.459 146.195C330.822 146.195 329.817 147.644 329.817 150.215C329.817 152.903 331.152 153.652 332.345 153.667ZM332.345 152.885C331.433 152.885 330.765 152.108 330.769 151.238C330.772 150.368 331.472 149.59 332.374 149.59C333.265 149.59 333.922 150.321 333.922 151.223C333.922 152.147 333.237 152.885 332.345 152.885Z" fill="black"/>
<path d="M393.281 160.667C394.666 160.667 395.682 159.644 395.682 158.252C395.682 156.842 394.702 155.809 393.367 155.809C392.877 155.809 392.401 155.983 392.102 156.221H392.06L392.316 154.076H395.355V153.294H391.577L391.137 156.874L391.96 156.973C392.262 156.757 392.777 156.601 393.225 156.604C394.151 156.611 394.83 157.314 394.83 158.266C394.83 159.2 394.176 159.885 393.281 159.885C392.536 159.885 391.943 159.406 391.875 158.749H391.023C391.076 159.857 392.031 160.667 393.281 160.667Z" fill="black"/>
</g>
<rect x="81.2969" y="1.06714" width="378" height="248" rx="15.5" stroke="black"/>
<g clip-path="url(#clip1_0_1135)">
<rect x="80.7969" y="274.188" width="379" height="207.216" fill="white"/>
<path d="M181.549 296.884V295.338H189.673V296.884H186.526V305.52H184.696V296.884H181.549ZM192.317 305.674C191.834 305.674 191.398 305.587 191.01 305.415C190.625 305.239 190.321 304.981 190.095 304.64C189.873 304.298 189.762 303.877 189.762 303.377C189.762 302.946 189.842 302.59 190.001 302.308C190.16 302.026 190.377 301.801 190.652 301.632C190.927 301.463 191.237 301.335 191.582 301.249C191.93 301.159 192.289 301.095 192.661 301.055C193.108 301.009 193.471 300.967 193.749 300.931C194.028 300.891 194.23 300.831 194.356 300.752C194.485 300.669 194.55 300.541 194.55 300.369V300.339C194.55 299.965 194.439 299.675 194.217 299.469C193.995 299.264 193.675 299.161 193.257 299.161C192.816 299.161 192.467 299.257 192.208 299.449C191.953 299.641 191.781 299.868 191.691 300.13L190.011 299.892C190.143 299.428 190.362 299.04 190.667 298.728C190.972 298.413 191.345 298.178 191.786 298.022C192.226 297.863 192.714 297.784 193.247 297.784C193.615 297.784 193.981 297.827 194.346 297.913C194.71 297.999 195.044 298.142 195.345 298.341C195.647 298.536 195.889 298.803 196.071 299.141C196.257 299.479 196.349 299.902 196.349 300.409V305.52H194.619V304.471H194.56C194.45 304.683 194.296 304.882 194.097 305.067C193.902 305.249 193.655 305.397 193.357 305.51C193.062 305.619 192.715 305.674 192.317 305.674ZM192.785 304.351C193.146 304.351 193.459 304.28 193.724 304.137C193.99 303.992 194.193 303.799 194.336 303.561C194.482 303.322 194.555 303.062 194.555 302.78V301.88C194.498 301.927 194.402 301.97 194.266 302.01C194.134 302.049 193.985 302.084 193.819 302.114C193.653 302.144 193.489 302.17 193.327 302.194C193.164 302.217 193.023 302.237 192.904 302.253C192.636 302.29 192.395 302.349 192.183 302.432C191.971 302.515 191.804 302.631 191.681 302.78C191.558 302.926 191.497 303.115 191.497 303.347C191.497 303.678 191.618 303.929 191.86 304.098C192.102 304.267 192.41 304.351 192.785 304.351ZM204.195 299.902L202.554 300.081C202.508 299.915 202.426 299.759 202.31 299.613C202.198 299.467 202.045 299.35 201.853 299.26C201.661 299.171 201.425 299.126 201.147 299.126C200.772 299.126 200.458 299.207 200.202 299.37C199.951 299.532 199.826 299.743 199.83 300.001C199.826 300.223 199.907 300.404 200.073 300.543C200.242 300.682 200.521 300.797 200.908 300.886L202.211 301.164C202.933 301.32 203.47 301.567 203.822 301.905C204.176 302.243 204.355 302.686 204.359 303.233C204.355 303.713 204.214 304.137 203.936 304.505C203.661 304.87 203.278 305.155 202.788 305.36C202.297 305.566 201.734 305.669 201.097 305.669C200.163 305.669 199.41 305.473 198.84 305.082C198.27 304.688 197.93 304.139 197.821 303.436L199.576 303.267C199.656 303.612 199.825 303.872 200.083 304.048C200.342 304.224 200.678 304.311 201.092 304.311C201.52 304.311 201.863 304.224 202.121 304.048C202.383 303.872 202.514 303.655 202.514 303.397C202.514 303.178 202.43 302.997 202.261 302.855C202.095 302.712 201.836 302.603 201.485 302.527L200.183 302.253C199.45 302.101 198.908 301.844 198.557 301.483C198.205 301.118 198.031 300.657 198.035 300.1C198.031 299.63 198.159 299.222 198.418 298.877C198.679 298.529 199.042 298.261 199.506 298.072C199.974 297.88 200.512 297.784 201.122 297.784C202.017 297.784 202.721 297.974 203.235 298.355C203.752 298.737 204.072 299.252 204.195 299.902ZM207.483 303.123L207.478 300.951H207.767L210.511 297.883H212.614L209.238 301.642H208.865L207.483 303.123ZM205.843 305.52V295.338H207.642V305.52H205.843ZM210.635 305.52L208.15 302.044L209.363 300.777L212.788 305.52H210.635ZM226.081 298.773H224.221C224.168 298.468 224.071 298.198 223.928 297.963C223.786 297.724 223.608 297.522 223.396 297.356C223.184 297.19 222.942 297.066 222.67 296.983C222.402 296.897 222.112 296.854 221.8 296.854C221.247 296.854 220.756 296.993 220.329 297.272C219.901 297.547 219.566 297.951 219.324 298.485C219.082 299.015 218.961 299.663 218.961 300.429C218.961 301.208 219.082 301.864 219.324 302.397C219.57 302.928 219.904 303.329 220.329 303.6C220.756 303.869 221.245 304.003 221.795 304.003C222.1 304.003 222.385 303.963 222.65 303.884C222.919 303.801 223.159 303.68 223.371 303.521C223.587 303.362 223.767 303.166 223.913 302.934C224.062 302.702 224.165 302.437 224.221 302.139L226.081 302.149C226.011 302.633 225.86 303.087 225.628 303.511C225.4 303.935 225.1 304.31 224.729 304.635C224.357 304.956 223.923 305.208 223.426 305.39C222.929 305.569 222.377 305.659 221.77 305.659C220.876 305.659 220.077 305.452 219.374 305.037C218.671 304.623 218.118 304.025 217.714 303.243C217.309 302.46 217.107 301.522 217.107 300.429C217.107 299.332 217.311 298.394 217.719 297.615C218.126 296.833 218.681 296.234 219.384 295.82C220.087 295.406 220.882 295.199 221.77 295.199C222.337 295.199 222.864 295.278 223.351 295.437C223.839 295.596 224.273 295.83 224.654 296.138C225.035 296.443 225.348 296.818 225.594 297.262C225.842 297.703 226.005 298.206 226.081 298.773ZM231.021 305.669C230.276 305.669 229.629 305.505 229.082 305.176C228.536 304.848 228.111 304.389 227.81 303.799C227.511 303.209 227.362 302.52 227.362 301.731C227.362 300.942 227.511 300.251 227.81 299.658C228.111 299.065 228.536 298.604 229.082 298.276C229.629 297.948 230.276 297.784 231.021 297.784C231.767 297.784 232.413 297.948 232.96 298.276C233.507 298.604 233.93 299.065 234.228 299.658C234.53 300.251 234.68 300.942 234.68 301.731C234.68 302.52 234.53 303.209 234.228 303.799C233.93 304.389 233.507 304.848 232.96 305.176C232.413 305.505 231.767 305.669 231.021 305.669ZM231.031 304.227C231.436 304.227 231.774 304.116 232.045 303.894C232.317 303.668 232.519 303.367 232.652 302.989C232.788 302.611 232.856 302.19 232.856 301.726C232.856 301.259 232.788 300.836 232.652 300.458C232.519 300.077 232.317 299.774 232.045 299.549C231.774 299.323 231.436 299.211 231.031 299.211C230.617 299.211 230.272 299.323 229.997 299.549C229.725 299.774 229.522 300.077 229.386 300.458C229.253 300.836 229.187 301.259 229.187 301.726C229.187 302.19 229.253 302.611 229.386 302.989C229.522 303.367 229.725 303.668 229.997 303.894C230.272 304.116 230.617 304.227 231.031 304.227ZM241.075 302.308V297.883H242.875V305.52H241.13V304.162H241.05C240.878 304.59 240.595 304.94 240.2 305.211C239.809 305.483 239.327 305.619 238.753 305.619C238.253 305.619 237.81 305.508 237.426 305.286C237.045 305.06 236.747 304.734 236.531 304.306C236.316 303.876 236.208 303.355 236.208 302.745V297.883H238.008V302.467C238.008 302.951 238.14 303.335 238.405 303.62C238.671 303.905 239.019 304.048 239.449 304.048C239.715 304.048 239.971 303.983 240.22 303.854C240.469 303.725 240.672 303.533 240.831 303.277C240.994 303.019 241.075 302.696 241.075 302.308ZM246.525 301.045V305.52H244.725V297.883H246.446V299.181H246.535C246.711 298.753 246.991 298.413 247.375 298.162C247.763 297.91 248.242 297.784 248.812 297.784C249.339 297.784 249.798 297.896 250.189 298.122C250.584 298.347 250.889 298.674 251.104 299.101C251.323 299.529 251.431 300.047 251.427 300.657V305.52H249.627V300.936C249.627 300.425 249.495 300.026 249.23 299.738C248.968 299.449 248.605 299.305 248.141 299.305C247.826 299.305 247.546 299.375 247.301 299.514C247.059 299.65 246.868 299.847 246.729 300.105C246.593 300.364 246.525 300.677 246.525 301.045ZM257.07 297.883V299.275H252.68V297.883H257.07ZM253.764 296.054H255.564V303.223C255.564 303.465 255.6 303.65 255.673 303.779C255.749 303.905 255.849 303.992 255.971 304.038C256.094 304.084 256.23 304.108 256.379 304.108C256.492 304.108 256.594 304.099 256.687 304.083C256.783 304.066 256.856 304.051 256.906 304.038L257.209 305.445C257.113 305.478 256.975 305.515 256.797 305.554C256.621 305.594 256.405 305.617 256.15 305.624C255.699 305.637 255.293 305.569 254.932 305.42C254.571 305.268 254.284 305.032 254.072 304.714C253.863 304.396 253.761 303.998 253.764 303.521V296.054ZM267.472 303.61V303.074C267.472 302.679 267.555 302.316 267.72 301.985C267.889 301.653 268.135 301.386 268.456 301.184C268.778 300.982 269.167 300.881 269.624 300.881C270.095 300.881 270.49 300.982 270.808 301.184C271.126 301.383 271.366 301.648 271.529 301.98C271.694 302.311 271.777 302.676 271.777 303.074V303.61C271.777 304.005 271.694 304.368 271.529 304.699C271.363 305.031 271.119 305.297 270.798 305.5C270.48 305.702 270.088 305.803 269.624 305.803C269.16 305.803 268.768 305.702 268.446 305.5C268.125 305.297 267.881 305.031 267.715 304.699C267.553 304.368 267.472 304.005 267.472 303.61ZM268.769 303.074V303.61C268.769 303.872 268.832 304.113 268.958 304.331C269.084 304.55 269.306 304.659 269.624 304.659C269.946 304.659 270.166 304.552 270.286 304.336C270.408 304.118 270.47 303.876 270.47 303.61V303.074C270.47 302.808 270.412 302.566 270.296 302.348C270.18 302.126 269.956 302.015 269.624 302.015C269.313 302.015 269.093 302.126 268.963 302.348C268.834 302.566 268.769 302.808 268.769 303.074ZM262.296 297.784V297.247C262.296 296.849 262.381 296.484 262.55 296.153C262.719 295.822 262.964 295.556 263.286 295.358C263.607 295.155 263.997 295.054 264.454 295.054C264.921 295.054 265.314 295.155 265.632 295.358C265.954 295.556 266.196 295.822 266.358 296.153C266.521 296.484 266.602 296.849 266.602 297.247V297.784C266.602 298.181 266.519 298.546 266.353 298.877C266.191 299.206 265.949 299.469 265.627 299.668C265.306 299.867 264.915 299.966 264.454 299.966C263.987 299.966 263.592 299.867 263.271 299.668C262.953 299.469 262.711 299.204 262.545 298.873C262.379 298.541 262.296 298.178 262.296 297.784ZM263.604 297.247V297.784C263.604 298.049 263.665 298.291 263.788 298.51C263.914 298.725 264.136 298.833 264.454 298.833C264.772 298.833 264.991 298.725 265.11 298.51C265.233 298.291 265.294 298.049 265.294 297.784V297.247C265.294 296.982 265.236 296.74 265.12 296.521C265.004 296.299 264.782 296.188 264.454 296.188C264.139 296.188 263.919 296.299 263.793 296.521C263.667 296.743 263.604 296.985 263.604 297.247ZM262.863 305.52L269.863 295.338H271.106L264.106 305.52H262.863ZM277.412 305.52V295.338H279.212V299.146H279.287C279.38 298.96 279.51 298.763 279.68 298.554C279.849 298.342 280.077 298.162 280.366 298.012C280.654 297.86 281.022 297.784 281.469 297.784C282.059 297.784 282.591 297.935 283.065 298.236C283.542 298.534 283.92 298.977 284.199 299.564C284.48 300.147 284.621 300.863 284.621 301.711C284.621 302.55 284.484 303.262 284.209 303.849C283.934 304.436 283.559 304.883 283.085 305.191C282.611 305.5 282.074 305.654 281.474 305.654C281.037 305.654 280.674 305.581 280.385 305.435C280.097 305.289 279.865 305.114 279.689 304.908C279.517 304.699 279.383 304.502 279.287 304.316H279.182V305.52H277.412ZM279.177 301.701C279.177 302.195 279.247 302.628 279.386 302.999C279.529 303.37 279.733 303.66 279.998 303.869C280.266 304.074 280.591 304.177 280.972 304.177C281.37 304.177 281.703 304.071 281.971 303.859C282.24 303.644 282.442 303.35 282.578 302.979C282.717 302.605 282.787 302.179 282.787 301.701C282.787 301.227 282.719 300.806 282.583 300.439C282.447 300.071 282.245 299.782 281.976 299.574C281.708 299.365 281.373 299.26 280.972 299.26C280.588 299.26 280.261 299.361 279.993 299.564C279.724 299.766 279.52 300.049 279.381 300.414C279.245 300.778 279.177 301.208 279.177 301.701ZM287.01 308.383C286.765 308.383 286.538 308.363 286.329 308.324C286.124 308.287 285.959 308.244 285.837 308.194L286.254 306.792C286.516 306.868 286.75 306.905 286.955 306.902C287.161 306.898 287.342 306.834 287.497 306.708C287.656 306.585 287.791 306.38 287.9 306.091L288.054 305.679L285.285 297.883H287.194L288.954 303.65H289.034L290.798 297.883H292.713L289.655 306.444C289.512 306.849 289.324 307.195 289.088 307.483C288.853 307.775 288.565 307.997 288.223 308.15C287.885 308.305 287.481 308.383 287.01 308.383ZM306.225 298.773H304.366C304.313 298.468 304.215 298.198 304.073 297.963C303.93 297.724 303.753 297.522 303.541 297.356C303.329 297.19 303.087 297.066 302.815 296.983C302.546 296.897 302.256 296.854 301.945 296.854C301.391 296.854 300.901 296.993 300.473 297.272C300.046 297.547 299.711 297.951 299.469 298.485C299.227 299.015 299.106 299.663 299.106 300.429C299.106 301.208 299.227 301.864 299.469 302.397C299.714 302.928 300.049 303.329 300.473 303.6C300.901 303.869 301.39 304.003 301.94 304.003C302.245 304.003 302.53 303.963 302.795 303.884C303.063 303.801 303.304 303.68 303.516 303.521C303.731 303.362 303.912 303.166 304.058 302.934C304.207 302.702 304.31 302.437 304.366 302.139L306.225 302.149C306.156 302.633 306.005 303.087 305.773 303.511C305.544 303.935 305.244 304.31 304.873 304.635C304.502 304.956 304.068 305.208 303.57 305.39C303.073 305.569 302.521 305.659 301.915 305.659C301.02 305.659 300.221 305.452 299.519 305.037C298.816 304.623 298.262 304.025 297.858 303.243C297.454 302.46 297.252 301.522 297.252 300.429C297.252 299.332 297.455 298.394 297.863 297.615C298.271 296.833 298.826 296.234 299.529 295.82C300.231 295.406 301.027 295.199 301.915 295.199C302.482 295.199 303.009 295.278 303.496 295.437C303.983 295.596 304.417 295.83 304.798 296.138C305.18 296.443 305.493 296.818 305.738 297.262C305.987 297.703 306.149 298.206 306.225 298.773ZM310.032 305.674C309.548 305.674 309.113 305.587 308.725 305.415C308.34 305.239 308.035 304.981 307.81 304.64C307.588 304.298 307.477 303.877 307.477 303.377C307.477 302.946 307.556 302.59 307.716 302.308C307.875 302.026 308.092 301.801 308.367 301.632C308.642 301.463 308.952 301.335 309.297 301.249C309.645 301.159 310.004 301.095 310.375 301.055C310.823 301.009 311.186 300.967 311.464 300.931C311.743 300.891 311.945 300.831 312.071 300.752C312.2 300.669 312.265 300.541 312.265 300.369V300.339C312.265 299.965 312.154 299.675 311.931 299.469C311.709 299.264 311.39 299.161 310.972 299.161C310.531 299.161 310.181 299.257 309.923 299.449C309.668 299.641 309.495 299.868 309.406 300.13L307.725 299.892C307.858 299.428 308.077 299.04 308.382 298.728C308.687 298.413 309.06 298.178 309.5 298.022C309.941 297.863 310.428 297.784 310.962 297.784C311.33 297.784 311.696 297.827 312.061 297.913C312.425 297.999 312.758 298.142 313.06 298.341C313.362 298.536 313.604 298.803 313.786 299.141C313.971 299.479 314.064 299.902 314.064 300.409V305.52H312.334V304.471H312.275C312.165 304.683 312.011 304.882 311.812 305.067C311.617 305.249 311.37 305.397 311.071 305.51C310.776 305.619 310.43 305.674 310.032 305.674ZM310.5 304.351C310.861 304.351 311.174 304.28 311.439 304.137C311.704 303.992 311.908 303.799 312.051 303.561C312.197 303.322 312.27 303.062 312.27 302.78V301.88C312.213 301.927 312.117 301.97 311.981 302.01C311.849 302.049 311.699 302.084 311.534 302.114C311.368 302.144 311.204 302.17 311.042 302.194C310.879 302.217 310.738 302.237 310.619 302.253C310.35 302.29 310.11 302.349 309.898 302.432C309.686 302.515 309.519 302.631 309.396 302.78C309.273 302.926 309.212 303.115 309.212 303.347C309.212 303.678 309.333 303.929 309.575 304.098C309.817 304.267 310.125 304.351 310.5 304.351ZM319.687 297.883V299.275H315.297V297.883H319.687ZM316.381 296.054H318.181V303.223C318.181 303.465 318.217 303.65 318.29 303.779C318.366 303.905 318.466 303.992 318.588 304.038C318.711 304.084 318.847 304.108 318.996 304.108C319.109 304.108 319.212 304.099 319.304 304.083C319.4 304.066 319.473 304.051 319.523 304.038L319.826 305.445C319.73 305.478 319.593 305.515 319.414 305.554C319.238 305.594 319.023 305.617 318.767 305.624C318.317 305.637 317.911 305.569 317.549 305.42C317.188 305.268 316.901 305.032 316.689 304.714C316.48 304.396 316.378 303.998 316.381 303.521V296.054ZM324.491 305.669C323.725 305.669 323.064 305.51 322.507 305.191C321.954 304.87 321.528 304.416 321.23 303.829C320.931 303.239 320.782 302.545 320.782 301.746C320.782 300.961 320.931 300.271 321.23 299.678C321.531 299.081 321.952 298.617 322.492 298.286C323.033 297.951 323.667 297.784 324.396 297.784C324.867 297.784 325.311 297.86 325.729 298.012C326.15 298.162 326.521 298.394 326.843 298.708C327.167 299.023 327.423 299.424 327.608 299.912C327.794 300.395 327.887 300.972 327.887 301.642V302.194H321.627V300.98H326.161C326.158 300.636 326.084 300.329 325.938 300.061C325.792 299.789 325.588 299.575 325.326 299.419C325.068 299.264 324.766 299.186 324.421 299.186C324.053 299.186 323.73 299.275 323.452 299.454C323.173 299.63 322.956 299.862 322.801 300.15C322.648 300.435 322.57 300.748 322.567 301.09V302.149C322.567 302.593 322.648 302.974 322.811 303.292C322.973 303.607 323.2 303.849 323.492 304.018C323.783 304.184 324.125 304.267 324.516 304.267C324.778 304.267 325.015 304.23 325.227 304.157C325.439 304.081 325.623 303.97 325.779 303.824C325.934 303.678 326.052 303.498 326.132 303.282L327.812 303.471C327.706 303.915 327.504 304.303 327.205 304.635C326.91 304.963 326.533 305.218 326.072 305.4C325.611 305.579 325.084 305.669 324.491 305.669ZM332.73 308.542C332.084 308.542 331.529 308.454 331.065 308.279C330.601 308.106 330.228 307.874 329.946 307.583C329.664 307.291 329.469 306.968 329.359 306.613L330.98 306.221C331.053 306.37 331.159 306.517 331.298 306.663C331.438 306.812 331.625 306.935 331.86 307.031C332.099 307.13 332.399 307.18 332.76 307.18C333.27 307.18 333.693 307.056 334.028 306.807C334.362 306.562 334.53 306.158 334.53 305.594V304.147H334.44C334.348 304.333 334.212 304.524 334.033 304.719C333.857 304.915 333.623 305.079 333.332 305.211C333.043 305.344 332.68 305.41 332.243 305.41C331.656 305.41 331.124 305.273 330.647 304.998C330.173 304.719 329.795 304.305 329.513 303.755C329.235 303.201 329.096 302.508 329.096 301.676C329.096 300.838 329.235 300.13 329.513 299.554C329.795 298.974 330.175 298.534 330.652 298.236C331.129 297.935 331.661 297.784 332.248 297.784C332.695 297.784 333.063 297.86 333.352 298.012C333.643 298.162 333.875 298.342 334.048 298.554C334.22 298.763 334.351 298.96 334.44 299.146H334.54V297.883H336.315V305.644C336.315 306.297 336.159 306.837 335.847 307.265C335.536 307.692 335.11 308.012 334.57 308.224C334.029 308.436 333.416 308.542 332.73 308.542ZM332.745 303.998C333.126 303.998 333.451 303.905 333.719 303.72C333.988 303.534 334.192 303.267 334.331 302.919C334.47 302.571 334.54 302.154 334.54 301.667C334.54 301.186 334.47 300.765 334.331 300.404C334.195 300.042 333.993 299.762 333.724 299.564C333.459 299.361 333.133 299.26 332.745 299.26C332.344 299.26 332.009 299.365 331.741 299.574C331.472 299.782 331.27 300.069 331.134 300.434C330.998 300.795 330.93 301.206 330.93 301.667C330.93 302.134 330.998 302.543 331.134 302.895C331.273 303.243 331.477 303.514 331.746 303.71C332.018 303.902 332.351 303.998 332.745 303.998ZM341.49 305.669C340.744 305.669 340.098 305.505 339.551 305.176C339.004 304.848 338.58 304.389 338.278 303.799C337.98 303.209 337.831 302.52 337.831 301.731C337.831 300.942 337.98 300.251 338.278 299.658C338.58 299.065 339.004 298.604 339.551 298.276C340.098 297.948 340.744 297.784 341.49 297.784C342.236 297.784 342.882 297.948 343.429 298.276C343.976 298.604 344.398 299.065 344.697 299.658C344.998 300.251 345.149 300.942 345.149 301.731C345.149 302.52 344.998 303.209 344.697 303.799C344.398 304.389 343.976 304.848 343.429 305.176C342.882 305.505 342.236 305.669 341.49 305.669ZM341.5 304.227C341.904 304.227 342.242 304.116 342.514 303.894C342.786 303.668 342.988 303.367 343.121 302.989C343.257 302.611 343.325 302.19 343.325 301.726C343.325 301.259 343.257 300.836 343.121 300.458C342.988 300.077 342.786 299.774 342.514 299.549C342.242 299.323 341.904 299.211 341.5 299.211C341.086 299.211 340.741 299.323 340.466 299.549C340.194 299.774 339.99 300.077 339.854 300.458C339.722 300.836 339.656 301.259 339.656 301.726C339.656 302.19 339.722 302.611 339.854 302.989C339.99 303.367 340.194 303.668 340.466 303.894C340.741 304.116 341.086 304.227 341.5 304.227ZM346.677 305.52V297.883H348.422V299.156H348.501C348.64 298.715 348.879 298.375 349.217 298.137C349.559 297.895 349.948 297.774 350.385 297.774C350.485 297.774 350.596 297.779 350.719 297.789C350.845 297.795 350.949 297.807 351.032 297.824V299.479C350.956 299.453 350.835 299.429 350.669 299.409C350.506 299.386 350.349 299.375 350.197 299.375C349.868 299.375 349.573 299.446 349.312 299.588C349.053 299.728 348.849 299.922 348.7 300.17C348.551 300.419 348.476 300.705 348.476 301.03V305.52H346.677ZM353.578 308.383C353.333 308.383 353.106 308.363 352.897 308.324C352.692 308.287 352.528 308.244 352.405 308.194L352.823 306.792C353.085 306.868 353.318 306.905 353.524 306.902C353.729 306.898 353.91 306.834 354.066 306.708C354.225 306.585 354.359 306.38 354.468 306.091L354.623 305.679L351.853 297.883H353.762L355.522 303.65H355.602L357.367 297.883H359.281L356.223 306.444C356.081 306.849 355.892 307.195 355.657 307.483C355.421 307.775 355.133 307.997 354.792 308.15C354.453 308.305 354.049 308.383 353.578 308.383Z" fill="#222222"/>
<path d="M265.282 393.306C265.282 428.687 236.601 457.368 201.22 457.368C165.84 457.368 137.158 428.687 137.158 393.306C137.158 357.926 165.84 329.244 201.22 329.244C236.601 329.244 265.282 357.926 265.282 393.306Z" fill="#828282"/>
<path fill-rule="evenodd" clip-rule="evenodd" d="M201.22 456.398C236.065 456.398 264.312 428.151 264.312 393.306C264.312 358.462 236.065 330.215 201.22 330.215C166.376 330.215 138.129 358.462 138.129 393.306C138.129 428.151 166.376 456.398 201.22 456.398ZM201.22 457.368C236.601 457.368 265.282 428.687 265.282 393.306C265.282 357.926 236.601 329.244 201.22 329.244C165.84 329.244 137.158 357.926 137.158 393.306C137.158 428.687 165.84 457.368 201.22 457.368Z" fill="#828282"/>
<path d="M201.222 329.244C213.892 329.244 226.278 333.001 236.813 340.041C247.348 347.08 255.559 357.085 260.408 368.791C265.256 380.497 266.525 393.377 264.053 405.804C261.581 418.231 255.48 429.646 246.521 438.605L201.222 393.306L201.222 329.244Z" fill="#6F57E9"/>
<path fill-rule="evenodd" clip-rule="evenodd" d="M264.527 405.899C267.018 393.378 265.74 380.399 260.854 368.605C255.969 356.81 247.696 346.729 237.081 339.637C226.466 332.544 213.986 328.759 201.22 328.759L200.735 328.759L200.735 393.507L246.519 439.291L246.862 438.948C255.889 429.921 262.037 418.42 264.527 405.899ZM259.957 368.976C264.769 380.593 266.028 393.377 263.575 405.709C261.154 417.883 255.222 429.079 246.518 437.917L201.705 393.105L201.705 329.731C214.11 329.826 226.221 333.548 236.541 340.444C246.997 347.43 255.145 357.359 259.957 368.976Z" fill="white"/>
<path d="M246.519 438.605C239.745 445.379 231.537 450.547 222.502 453.73C213.466 456.912 203.831 458.028 194.307 456.994C184.783 455.961 175.612 452.804 167.47 447.757C159.327 442.71 152.42 435.901 147.257 427.831L201.22 393.306L246.519 438.605Z" fill="#3DD193"/>
<path fill-rule="evenodd" clip-rule="evenodd" d="M247.206 438.605L201.288 392.687L146.588 427.684L146.849 428.093C152.051 436.224 159.011 443.084 167.215 448.17C175.419 453.255 184.66 456.435 194.256 457.477C203.852 458.518 213.56 457.394 222.664 454.188C231.768 450.981 240.037 445.774 246.863 438.948L247.206 438.605ZM245.832 438.604C239.176 445.159 231.156 450.168 222.341 453.272C213.374 456.431 203.812 457.538 194.361 456.512C184.909 455.486 175.807 452.353 167.726 447.345C159.783 442.421 153.024 435.808 147.93 427.978L201.154 393.925L245.832 438.604Z" fill="white"/>
<path d="M147.185 427.718C142.017 419.603 138.743 410.429 137.607 400.875C136.47 391.322 137.499 381.635 140.619 372.534C143.739 363.433 148.868 355.151 155.627 348.304C162.385 341.457 170.599 336.22 179.658 332.982L201.22 393.306L147.185 427.718Z" fill="#E95D84"/>
<path fill-rule="evenodd" clip-rule="evenodd" d="M147.038 428.388L201.809 393.508L179.954 332.361L179.497 332.525C170.368 335.787 162.092 341.064 155.283 347.963C148.473 354.862 143.305 363.206 140.161 372.376C137.018 381.546 135.981 391.307 137.126 400.933C138.271 410.558 141.57 419.803 146.777 427.979L147.038 428.388ZM147.337 427.047C142.357 419.095 139.199 410.138 138.09 400.818C136.962 391.337 137.984 381.723 141.08 372.691C144.176 363.659 149.266 355.44 155.973 348.645C162.567 341.965 170.556 336.829 179.367 333.604L200.634 393.105L147.337 427.047Z" fill="white"/>
<path d="M223.796 384.667C223.299 384.667 222.858 384.582 222.472 384.412C222.088 384.242 221.785 384.005 221.562 383.702C221.339 383.399 221.221 383.048 221.207 382.651H222.503C222.515 382.841 222.578 383.008 222.693 383.15C222.808 383.291 222.96 383.4 223.151 383.478C223.342 383.556 223.556 383.595 223.792 383.595C224.045 383.595 224.269 383.551 224.464 383.464C224.66 383.375 224.813 383.25 224.923 383.092C225.033 382.933 225.087 382.751 225.085 382.544C225.087 382.33 225.032 382.142 224.919 381.979C224.807 381.815 224.644 381.688 224.43 381.596C224.219 381.504 223.963 381.458 223.665 381.458H223.041V380.472H223.665C223.911 380.472 224.125 380.43 224.309 380.345C224.495 380.26 224.641 380.14 224.747 379.986C224.853 379.83 224.904 379.65 224.902 379.445C224.904 379.245 224.86 379.072 224.768 378.925C224.678 378.775 224.551 378.659 224.385 378.576C224.222 378.494 224.03 378.452 223.809 378.452C223.593 378.452 223.394 378.491 223.21 378.57C223.026 378.648 222.878 378.759 222.765 378.904C222.652 379.046 222.593 379.216 222.586 379.414H221.355C221.364 379.019 221.478 378.672 221.697 378.373C221.917 378.072 222.211 377.838 222.579 377.67C222.947 377.5 223.359 377.415 223.816 377.415C224.287 377.415 224.696 377.503 225.043 377.68C225.393 377.855 225.663 378.09 225.853 378.387C226.044 378.683 226.14 379.011 226.14 379.369C226.142 379.767 226.025 380.1 225.788 380.369C225.554 380.638 225.246 380.814 224.864 380.896V380.951C225.361 381.02 225.741 381.204 226.005 381.503C226.272 381.799 226.404 382.168 226.402 382.609C226.402 383.005 226.289 383.358 226.064 383.671C225.841 383.981 225.533 384.225 225.14 384.402C224.749 384.579 224.301 384.667 223.796 384.667Z" fill="white"/>
<path d="M230.094 384.667C229.582 384.667 229.127 384.581 228.729 384.409C228.334 384.236 228.024 384.001 227.798 383.702C227.575 383.401 227.465 383.06 227.467 382.678C227.465 382.382 227.53 382.11 227.66 381.861C227.791 381.613 227.968 381.406 228.191 381.241C228.417 381.073 228.667 380.966 228.943 380.92V380.872C228.58 380.792 228.286 380.607 228.06 380.317C227.837 380.025 227.727 379.689 227.729 379.307C227.727 378.944 227.828 378.62 228.033 378.335C228.237 378.05 228.518 377.826 228.874 377.663C229.23 377.498 229.637 377.415 230.094 377.415C230.547 377.415 230.95 377.498 231.304 377.663C231.66 377.826 231.94 378.05 232.145 378.335C232.352 378.62 232.455 378.944 232.455 379.307C232.455 379.689 232.341 380.025 232.114 380.317C231.889 380.607 231.598 380.792 231.242 380.872V380.92C231.518 380.966 231.766 381.073 231.986 381.241C232.209 381.406 232.386 381.613 232.517 381.861C232.65 382.11 232.717 382.382 232.717 382.678C232.717 383.06 232.604 383.401 232.379 383.702C232.154 384.001 231.844 384.236 231.449 384.409C231.056 384.581 230.604 384.667 230.094 384.667ZM230.094 383.681C230.358 383.681 230.588 383.636 230.783 383.547C230.979 383.455 231.13 383.326 231.238 383.161C231.346 382.995 231.401 382.805 231.404 382.589C231.401 382.363 231.343 382.165 231.228 381.992C231.115 381.818 230.96 381.681 230.763 381.582C230.567 381.483 230.344 381.434 230.094 381.434C229.841 381.434 229.616 381.483 229.418 381.582C229.221 381.681 229.065 381.818 228.95 381.992C228.837 382.165 228.782 382.363 228.784 382.589C228.782 382.805 228.835 382.995 228.943 383.161C229.051 383.324 229.202 383.452 229.398 383.543C229.595 383.635 229.827 383.681 230.094 383.681ZM230.094 380.465C230.31 380.465 230.501 380.422 230.666 380.334C230.834 380.247 230.966 380.125 231.063 379.969C231.159 379.813 231.208 379.632 231.211 379.428C231.208 379.226 231.16 379.049 231.066 378.897C230.972 378.743 230.841 378.625 230.673 378.542C230.505 378.457 230.312 378.414 230.094 378.414C229.871 378.414 229.675 378.457 229.505 378.542C229.337 378.625 229.206 378.743 229.112 378.897C229.02 379.049 228.975 379.226 228.977 379.428C228.975 379.632 229.021 379.813 229.115 379.969C229.212 380.123 229.344 380.245 229.511 380.334C229.682 380.422 229.876 380.465 230.094 380.465Z" fill="white"/>
<path d="M237.625 383.247V382.875C237.625 382.601 237.682 382.35 237.797 382.12C237.914 381.89 238.084 381.705 238.307 381.565C238.53 381.425 238.8 381.355 239.117 381.355C239.443 381.355 239.717 381.425 239.937 381.565C240.158 381.703 240.325 381.887 240.437 382.116C240.552 382.346 240.61 382.599 240.61 382.875V383.247C240.61 383.52 240.552 383.772 240.437 384.002C240.322 384.232 240.153 384.417 239.93 384.557C239.71 384.697 239.439 384.767 239.117 384.767C238.795 384.767 238.523 384.697 238.3 384.557C238.077 384.417 237.908 384.232 237.793 384.002C237.681 383.772 237.625 383.52 237.625 383.247ZM238.524 382.875V383.247C238.524 383.429 238.568 383.595 238.655 383.747C238.742 383.898 238.896 383.974 239.117 383.974C239.34 383.974 239.493 383.9 239.575 383.75C239.66 383.599 239.703 383.431 239.703 383.247V382.875C239.703 382.691 239.663 382.523 239.582 382.371C239.502 382.218 239.347 382.141 239.117 382.141C238.901 382.141 238.748 382.218 238.659 382.371C238.569 382.523 238.524 382.691 238.524 382.875ZM234.036 379.207V378.835C234.036 378.559 234.095 378.306 234.212 378.077C234.329 377.847 234.499 377.663 234.722 377.525C234.945 377.385 235.215 377.315 235.532 377.315C235.856 377.315 236.129 377.385 236.349 377.525C236.572 377.663 236.74 377.847 236.852 378.077C236.965 378.306 237.021 378.559 237.021 378.835V379.207C237.021 379.483 236.964 379.736 236.849 379.966C236.736 380.193 236.569 380.376 236.346 380.514C236.123 380.651 235.852 380.72 235.532 380.72C235.208 380.72 234.935 380.651 234.712 380.514C234.491 380.376 234.324 380.192 234.209 379.962C234.094 379.732 234.036 379.481 234.036 379.207ZM234.943 378.835V379.207C234.943 379.391 234.985 379.559 235.07 379.711C235.158 379.86 235.312 379.935 235.532 379.935C235.753 379.935 235.905 379.86 235.987 379.711C236.072 379.559 236.115 379.391 236.115 379.207V378.835C236.115 378.651 236.075 378.483 235.994 378.332C235.914 378.178 235.76 378.101 235.532 378.101C235.314 378.101 235.161 378.178 235.074 378.332C234.987 378.486 234.943 378.653 234.943 378.835ZM234.429 384.571L239.282 377.511H240.144L235.291 384.571H234.429Z" fill="white"/>
<path d="M190.2 430.191V429.267L192.65 426.864C192.885 426.628 193.08 426.417 193.236 426.234C193.393 426.05 193.51 425.872 193.588 425.699C193.666 425.527 193.705 425.343 193.705 425.148C193.705 424.925 193.654 424.734 193.553 424.576C193.452 424.415 193.313 424.291 193.136 424.203C192.959 424.116 192.758 424.072 192.533 424.072C192.301 424.072 192.098 424.121 191.923 424.217C191.748 424.311 191.613 424.446 191.516 424.62C191.422 424.795 191.375 425.003 191.375 425.244H190.158C190.158 424.796 190.26 424.407 190.465 424.076C190.669 423.745 190.951 423.489 191.309 423.307C191.67 423.126 192.084 423.035 192.55 423.035C193.024 423.035 193.44 423.123 193.798 423.3C194.157 423.477 194.435 423.72 194.632 424.028C194.832 424.336 194.932 424.687 194.932 425.082C194.932 425.347 194.882 425.606 194.78 425.861C194.679 426.116 194.501 426.399 194.246 426.709C193.993 427.019 193.638 427.395 193.181 427.836L191.964 429.074V429.122H195.039V430.191H190.2Z" fill="white"/>
<path d="M198.737 430.287C198.225 430.287 197.77 430.201 197.373 430.029C196.977 429.856 196.667 429.621 196.442 429.322C196.219 429.021 196.109 428.68 196.111 428.298C196.109 428.002 196.173 427.73 196.304 427.481C196.435 427.233 196.612 427.026 196.835 426.861C197.06 426.693 197.31 426.586 197.586 426.54V426.492C197.223 426.412 196.929 426.227 196.704 425.937C196.481 425.645 196.371 425.309 196.373 424.927C196.371 424.564 196.472 424.24 196.676 423.955C196.881 423.67 197.161 423.446 197.517 423.283C197.873 423.118 198.28 423.035 198.737 423.035C199.19 423.035 199.593 423.118 199.947 423.283C200.303 423.446 200.584 423.67 200.788 423.955C200.995 424.24 201.099 424.564 201.099 424.927C201.099 425.309 200.985 425.645 200.757 425.937C200.532 426.227 200.241 426.412 199.885 426.492V426.54C200.161 426.586 200.409 426.693 200.63 426.861C200.853 427.026 201.03 427.233 201.161 427.481C201.294 427.73 201.361 428.002 201.361 428.298C201.361 428.68 201.248 429.021 201.023 429.322C200.798 429.621 200.487 429.856 200.092 430.029C199.699 430.201 199.248 430.287 198.737 430.287ZM198.737 429.301C199.002 429.301 199.232 429.256 199.427 429.167C199.622 429.075 199.774 428.946 199.882 428.781C199.99 428.615 200.045 428.425 200.047 428.209C200.045 427.983 199.986 427.785 199.871 427.612C199.759 427.438 199.604 427.301 199.406 427.202C199.211 427.103 198.988 427.054 198.737 427.054C198.485 427.054 198.259 427.103 198.062 427.202C197.864 427.301 197.708 427.438 197.593 427.612C197.481 427.785 197.425 427.983 197.428 428.209C197.425 428.425 197.478 428.615 197.586 428.781C197.694 428.944 197.846 429.072 198.041 429.163C198.239 429.255 198.471 429.301 198.737 429.301ZM198.737 426.085C198.953 426.085 199.144 426.042 199.31 425.954C199.477 425.867 199.61 425.745 199.706 425.589C199.803 425.433 199.852 425.252 199.854 425.048C199.852 424.846 199.804 424.669 199.709 424.517C199.615 424.363 199.484 424.245 199.317 424.162C199.149 424.077 198.956 424.034 198.737 424.034C198.515 424.034 198.318 424.077 198.148 424.162C197.98 424.245 197.849 424.363 197.755 424.517C197.663 424.669 197.618 424.846 197.621 425.048C197.618 425.252 197.664 425.433 197.759 425.589C197.855 425.743 197.987 425.865 198.155 425.954C198.325 426.042 198.519 426.085 198.737 426.085Z" fill="white"/>
<path d="M206.268 428.867V428.495C206.268 428.221 206.325 427.97 206.44 427.74C206.558 427.51 206.728 427.325 206.95 427.185C207.173 427.045 207.443 426.975 207.761 426.975C208.087 426.975 208.36 427.045 208.581 427.185C208.801 427.323 208.968 427.507 209.081 427.736C209.196 427.966 209.253 428.219 209.253 428.495V428.867C209.253 429.14 209.196 429.392 209.081 429.622C208.966 429.852 208.797 430.037 208.574 430.177C208.353 430.317 208.082 430.387 207.761 430.387C207.439 430.387 207.166 430.317 206.944 430.177C206.721 430.037 206.552 429.852 206.437 429.622C206.324 429.392 206.268 429.14 206.268 428.867ZM207.168 428.495V428.867C207.168 429.049 207.211 429.215 207.299 429.367C207.386 429.518 207.54 429.594 207.761 429.594C207.983 429.594 208.136 429.52 208.219 429.37C208.304 429.219 208.346 429.051 208.346 428.867V428.495C208.346 428.311 208.306 428.143 208.226 427.991C208.145 427.838 207.99 427.761 207.761 427.761C207.545 427.761 207.392 427.838 207.302 427.991C207.212 428.143 207.168 428.311 207.168 428.495ZM202.68 424.827V424.455C202.68 424.179 202.738 423.926 202.856 423.697C202.973 423.467 203.143 423.283 203.366 423.145C203.589 423.005 203.859 422.935 204.176 422.935C204.5 422.935 204.772 423.005 204.993 423.145C205.216 423.283 205.383 423.467 205.496 423.697C205.609 423.926 205.665 424.179 205.665 424.455V424.827C205.665 425.103 205.607 425.356 205.492 425.586C205.38 425.813 205.212 425.996 204.989 426.134C204.766 426.272 204.495 426.34 204.176 426.34C203.852 426.34 203.578 426.272 203.355 426.134C203.135 425.996 202.967 425.812 202.852 425.582C202.737 425.352 202.68 425.101 202.68 424.827ZM203.586 424.455V424.827C203.586 425.011 203.629 425.179 203.714 425.331C203.801 425.48 203.955 425.555 204.176 425.555C204.396 425.555 204.548 425.48 204.631 425.331C204.716 425.179 204.758 425.011 204.758 424.827V424.455C204.758 424.271 204.718 424.103 204.638 423.952C204.557 423.798 204.403 423.721 204.176 423.721C203.957 423.721 203.805 423.798 203.717 423.952C203.63 424.106 203.586 424.273 203.586 424.455ZM203.073 430.191L207.926 423.131H208.788L203.934 430.191H203.073Z" fill="white"/>
<path d="M158.169 382.629V381.706L160.62 379.303C160.854 379.066 161.05 378.856 161.206 378.672C161.362 378.488 161.479 378.31 161.558 378.138C161.636 377.966 161.675 377.782 161.675 377.587C161.675 377.364 161.624 377.173 161.523 377.014C161.422 376.854 161.283 376.729 161.106 376.642C160.929 376.555 160.728 376.511 160.503 376.511C160.271 376.511 160.067 376.559 159.893 376.656C159.718 376.75 159.583 376.885 159.486 377.059C159.392 377.234 159.345 377.442 159.345 377.683H158.128C158.128 377.235 158.23 376.845 158.435 376.515C158.639 376.184 158.921 375.927 159.279 375.746C159.64 375.564 160.054 375.474 160.52 375.474C160.993 375.474 161.409 375.562 161.768 375.739C162.126 375.916 162.404 376.158 162.602 376.466C162.802 376.774 162.902 377.126 162.902 377.521C162.902 377.785 162.851 378.045 162.75 378.3C162.649 378.555 162.471 378.838 162.216 379.148C161.963 379.458 161.608 379.834 161.151 380.275L159.934 381.513V381.561H163.009V382.629H158.169Z" fill="white"/>
<path d="M166.707 382.726C166.195 382.726 165.74 382.64 165.342 382.467C164.947 382.295 164.637 382.059 164.412 381.761C164.189 381.46 164.078 381.118 164.081 380.737C164.078 380.441 164.143 380.168 164.274 379.92C164.405 379.672 164.582 379.465 164.805 379.3C165.03 379.132 165.28 379.025 165.556 378.979V378.931C165.193 378.85 164.899 378.665 164.674 378.376C164.451 378.084 164.34 377.747 164.343 377.366C164.34 377.003 164.441 376.679 164.646 376.394C164.85 376.109 165.131 375.885 165.487 375.722C165.843 375.556 166.25 375.474 166.707 375.474C167.16 375.474 167.563 375.556 167.917 375.722C168.273 375.885 168.554 376.109 168.758 376.394C168.965 376.679 169.068 377.003 169.068 377.366C169.068 377.747 168.955 378.084 168.727 378.376C168.502 378.665 168.211 378.85 167.855 378.931V378.979C168.131 379.025 168.379 379.132 168.6 379.3C168.822 379.465 168.999 379.672 169.13 379.92C169.264 380.168 169.33 380.441 169.33 380.737C169.33 381.118 169.218 381.46 168.992 381.761C168.767 382.059 168.457 382.295 168.062 382.467C167.669 382.64 167.217 382.726 166.707 382.726ZM166.707 381.74C166.971 381.74 167.201 381.695 167.397 381.606C167.592 381.514 167.744 381.385 167.852 381.22C167.96 381.054 168.015 380.863 168.017 380.647C168.015 380.422 167.956 380.223 167.841 380.051C167.729 379.876 167.574 379.74 167.376 379.641C167.181 379.542 166.958 379.493 166.707 379.493C166.454 379.493 166.229 379.542 166.032 379.641C165.834 379.74 165.678 379.876 165.563 380.051C165.45 380.223 165.395 380.422 165.397 380.647C165.395 380.863 165.448 381.054 165.556 381.22C165.664 381.383 165.816 381.51 166.011 381.602C166.209 381.694 166.441 381.74 166.707 381.74ZM166.707 378.524C166.923 378.524 167.114 378.48 167.279 378.393C167.447 378.306 167.579 378.184 167.676 378.028C167.772 377.871 167.822 377.691 167.824 377.487C167.822 377.284 167.773 377.107 167.679 376.956C167.585 376.802 167.454 376.683 167.286 376.601C167.119 376.516 166.925 376.473 166.707 376.473C166.484 376.473 166.288 376.516 166.118 376.601C165.95 376.683 165.819 376.802 165.725 376.956C165.633 377.107 165.588 377.284 165.59 377.487C165.588 377.691 165.634 377.871 165.728 378.028C165.825 378.182 165.957 378.303 166.125 378.393C166.295 378.48 166.489 378.524 166.707 378.524Z" fill="white"/>
<path d="M174.238 381.306V380.933C174.238 380.66 174.295 380.408 174.41 380.179C174.527 379.949 174.697 379.764 174.92 379.624C175.143 379.483 175.413 379.413 175.73 379.413C176.057 379.413 176.33 379.483 176.551 379.624C176.771 379.762 176.938 379.945 177.05 380.175C177.165 380.405 177.223 380.658 177.223 380.933V381.306C177.223 381.579 177.165 381.831 177.05 382.061C176.935 382.29 176.767 382.475 176.544 382.616C176.323 382.756 176.052 382.826 175.73 382.826C175.409 382.826 175.136 382.756 174.913 382.616C174.69 382.475 174.522 382.29 174.407 382.061C174.294 381.831 174.238 381.579 174.238 381.306ZM175.137 380.933V381.306C175.137 381.487 175.181 381.654 175.268 381.806C175.356 381.957 175.51 382.033 175.73 382.033C175.953 382.033 176.106 381.958 176.189 381.809C176.274 381.657 176.316 381.49 176.316 381.306V380.933C176.316 380.75 176.276 380.582 176.196 380.43C176.115 380.276 175.96 380.199 175.73 380.199C175.514 380.199 175.361 380.276 175.272 380.43C175.182 380.582 175.137 380.75 175.137 380.933ZM170.65 377.266V376.894C170.65 376.618 170.708 376.365 170.825 376.135C170.943 375.906 171.113 375.722 171.335 375.584C171.558 375.444 171.828 375.374 172.145 375.374C172.469 375.374 172.742 375.444 172.962 375.584C173.185 375.722 173.353 375.906 173.466 376.135C173.578 376.365 173.635 376.618 173.635 376.894V377.266C173.635 377.542 173.577 377.795 173.462 378.024C173.35 378.252 173.182 378.434 172.959 378.572C172.736 378.71 172.465 378.779 172.145 378.779C171.821 378.779 171.548 378.71 171.325 378.572C171.105 378.434 170.937 378.251 170.822 378.021C170.707 377.791 170.65 377.539 170.65 377.266ZM171.556 376.894V377.266C171.556 377.45 171.599 377.618 171.684 377.769C171.771 377.919 171.925 377.993 172.145 377.993C172.366 377.993 172.518 377.919 172.6 377.769C172.685 377.618 172.728 377.45 172.728 377.266V376.894C172.728 376.71 172.688 376.542 172.607 376.39C172.527 376.237 172.373 376.16 172.145 376.16C171.927 376.16 171.774 376.237 171.687 376.39C171.6 376.544 171.556 376.712 171.556 376.894ZM171.042 382.629L175.896 375.57H176.757L171.904 382.629H171.042Z" fill="white"/>
<path d="M188.902 345.841C188.564 345.839 188.234 345.78 187.912 345.666C187.591 345.548 187.301 345.359 187.044 345.097C186.787 344.833 186.582 344.482 186.43 344.045C186.279 343.607 186.204 343.063 186.206 342.415C186.206 341.811 186.271 341.272 186.399 340.799C186.528 340.325 186.713 339.925 186.954 339.599C187.196 339.27 187.486 339.02 187.826 338.848C188.169 338.675 188.551 338.589 188.974 338.589C189.418 338.589 189.811 338.676 190.153 338.851C190.498 339.026 190.776 339.265 190.987 339.568C191.199 339.869 191.329 340.209 191.38 340.588H190.122C190.058 340.317 189.925 340.101 189.726 339.94C189.528 339.777 189.277 339.696 188.974 339.696C188.485 339.696 188.108 339.908 187.844 340.333C187.582 340.758 187.449 341.342 187.447 342.084H187.495C187.608 341.882 187.754 341.709 187.933 341.564C188.112 341.419 188.315 341.308 188.54 341.229C188.767 341.149 189.007 341.109 189.26 341.109C189.674 341.109 190.045 341.208 190.374 341.405C190.704 341.603 190.966 341.875 191.159 342.222C191.352 342.567 191.448 342.962 191.446 343.408C191.448 343.872 191.342 344.289 191.128 344.659C190.915 345.027 190.617 345.316 190.236 345.528C189.854 345.739 189.41 345.844 188.902 345.841ZM188.895 344.807C189.145 344.807 189.369 344.746 189.567 344.625C189.765 344.503 189.921 344.338 190.036 344.132C190.151 343.925 190.207 343.693 190.205 343.435C190.207 343.183 190.152 342.954 190.039 342.749C189.929 342.545 189.776 342.383 189.581 342.263C189.385 342.144 189.163 342.084 188.912 342.084C188.726 342.084 188.552 342.12 188.392 342.191C188.231 342.262 188.091 342.361 187.971 342.488C187.852 342.612 187.757 342.756 187.688 342.922C187.622 343.085 187.587 343.26 187.585 343.446C187.587 343.692 187.645 343.918 187.757 344.125C187.87 344.332 188.025 344.497 188.223 344.621C188.42 344.745 188.644 344.807 188.895 344.807Z" fill="white"/>
<path d="M196.385 344.421V344.049C196.385 343.775 196.442 343.524 196.557 343.294C196.674 343.064 196.844 342.879 197.067 342.739C197.29 342.599 197.56 342.529 197.877 342.529C198.204 342.529 198.477 342.599 198.698 342.739C198.918 342.877 199.085 343.061 199.198 343.291C199.312 343.52 199.37 343.773 199.37 344.049V344.421C199.37 344.695 199.312 344.946 199.198 345.176C199.083 345.406 198.914 345.591 198.691 345.731C198.47 345.871 198.199 345.941 197.877 345.941C197.556 345.941 197.283 345.871 197.06 345.731C196.838 345.591 196.669 345.406 196.554 345.176C196.441 344.946 196.385 344.695 196.385 344.421ZM197.285 344.049V344.421C197.285 344.603 197.328 344.769 197.416 344.921C197.503 345.073 197.657 345.148 197.877 345.148C198.1 345.148 198.253 345.074 198.336 344.924C198.421 344.773 198.463 344.605 198.463 344.421V344.049C198.463 343.865 198.423 343.697 198.343 343.546C198.262 343.392 198.107 343.315 197.877 343.315C197.661 343.315 197.509 343.392 197.419 343.546C197.329 343.697 197.285 343.865 197.285 344.049ZM192.797 340.381V340.009C192.797 339.733 192.855 339.481 192.972 339.251C193.09 339.021 193.26 338.837 193.483 338.699C193.706 338.559 193.976 338.489 194.293 338.489C194.617 338.489 194.889 338.559 195.11 338.699C195.332 338.837 195.5 339.021 195.613 339.251C195.725 339.481 195.782 339.733 195.782 340.009V340.381C195.782 340.657 195.724 340.91 195.609 341.14C195.497 341.367 195.329 341.55 195.106 341.688C194.883 341.826 194.612 341.895 194.293 341.895C193.969 341.895 193.695 341.826 193.472 341.688C193.252 341.55 193.084 341.366 192.969 341.136C192.854 340.907 192.797 340.655 192.797 340.381ZM193.703 340.009V340.381C193.703 340.565 193.746 340.733 193.831 340.885C193.918 341.034 194.072 341.109 194.293 341.109C194.513 341.109 194.665 341.034 194.748 340.885C194.833 340.733 194.875 340.565 194.875 340.381V340.009C194.875 339.825 194.835 339.658 194.755 339.506C194.674 339.352 194.52 339.275 194.293 339.275C194.074 339.275 193.922 339.352 193.834 339.506C193.747 339.66 193.703 339.828 193.703 340.009ZM193.19 345.745L198.043 338.686H198.905L194.051 345.745H193.19Z" fill="white"/>
<rect x="286.35" y="348.852" width="12" height="12" rx="2" fill="#6F57E9"/>
<path d="M305.406 359.352H306.463V355.449H310.247V354.511H306.463V351.562H310.639V350.625H305.406V359.352ZM312.313 359.352H313.319V352.806H312.313V359.352ZM312.824 351.716C313.216 351.716 313.54 351.409 313.54 351.034C313.54 350.659 313.216 350.352 312.824 350.352C312.432 350.352 312.108 350.659 312.108 351.034C312.108 351.409 312.432 351.716 312.824 351.716ZM316.166 355.414C316.166 354.272 316.874 353.625 317.837 353.625C318.77 353.625 319.337 354.234 319.337 355.261V359.352H320.343V355.193C320.343 353.522 319.452 352.721 318.127 352.721C317.138 352.721 316.524 353.164 316.218 353.829H316.132V352.806H315.161V359.352H316.166V355.414ZM324.106 359.505C325.248 359.505 325.845 358.892 326.05 358.466H326.101V359.352H327.106V355.039C327.106 352.96 325.521 352.721 324.686 352.721C323.697 352.721 322.572 353.062 322.061 354.255L323.015 354.596C323.237 354.119 323.761 353.608 324.72 353.608C325.645 353.608 326.101 354.098 326.101 354.937V354.971C326.101 355.457 325.606 355.414 324.413 355.568C323.199 355.726 321.873 355.994 321.873 357.494C321.873 358.772 322.862 359.505 324.106 359.505ZM324.26 358.602C323.459 358.602 322.879 358.244 322.879 357.545C322.879 356.778 323.578 356.539 324.362 356.437C324.788 356.386 325.93 356.267 326.101 356.062V356.983C326.101 357.801 325.453 358.602 324.26 358.602ZM329.948 355.414C329.948 354.272 330.655 353.625 331.618 353.625C332.551 353.625 333.118 354.234 333.118 355.261V359.352H334.124V355.193C334.124 353.522 333.233 352.721 331.908 352.721C330.919 352.721 330.306 353.164 329.999 353.829H329.914V352.806H328.942V359.352H329.948V355.414ZM338.621 359.488C340.069 359.488 341.024 358.602 341.194 357.443H340.189C340.001 358.159 339.405 358.585 338.621 358.585C337.427 358.585 336.66 357.596 336.66 356.079C336.66 354.596 337.444 353.625 338.621 353.625C339.507 353.625 340.035 354.17 340.189 354.767H341.194C341.024 353.539 339.984 352.721 338.604 352.721C336.831 352.721 335.655 354.119 335.655 356.113C335.655 358.074 336.78 359.488 338.621 359.488ZM345.409 359.488C346.738 359.488 347.71 358.824 348.017 357.835L347.045 357.562C346.79 358.244 346.197 358.585 345.409 358.585C344.229 358.585 343.415 357.822 343.368 356.42H348.119V355.994C348.119 353.556 346.67 352.721 345.307 352.721C343.534 352.721 342.358 354.119 342.358 356.13C342.358 358.142 343.517 359.488 345.409 359.488ZM343.368 355.551C343.436 354.532 344.156 353.625 345.307 353.625C346.398 353.625 347.096 354.443 347.096 355.551H343.368ZM353.382 355.67C353.382 357.818 353.961 359.608 355.001 361.125H355.888C355.069 360 354.422 357.699 354.422 355.67C354.422 353.642 355.069 351.341 355.888 350.216H355.001C353.961 351.733 353.382 353.522 353.382 355.67ZM360.423 350.625H359.366L357.184 352.074V353.147L359.315 351.733H359.366V359.352H360.423V350.625ZM365.728 359.471C367.471 359.471 368.686 358.453 368.694 357.034C368.686 355.93 367.948 354.993 367.007 354.818V354.767C367.825 354.554 368.362 353.752 368.37 352.824C368.362 351.494 367.245 350.505 365.728 350.505C364.194 350.505 363.078 351.494 363.086 352.824C363.078 353.752 363.615 354.554 364.45 354.767V354.818C363.491 354.993 362.754 355.93 362.762 357.034C362.754 358.453 363.968 359.471 365.728 359.471ZM365.728 358.534C364.531 358.534 363.794 357.92 363.802 356.983C363.794 355.998 364.607 355.295 365.728 355.295C366.832 355.295 367.646 355.998 367.654 356.983C367.646 357.92 366.909 358.534 365.728 358.534ZM365.728 354.392C364.774 354.392 364.1 353.795 364.109 352.892C364.1 352.005 364.748 351.426 365.728 351.426C366.691 351.426 367.339 352.005 367.347 352.892C367.339 353.795 366.666 354.392 365.728 354.392ZM372.492 354.988C372.492 352.841 371.912 351.051 370.873 349.534H369.986C370.805 350.659 371.452 352.96 371.452 354.988C371.452 357.017 370.805 359.318 369.986 360.443H370.873C371.912 358.926 372.492 357.136 372.492 354.988Z" fill="black"/>
<rect x="286.35" y="373.852" width="12" height="12" rx="2" fill="#3DD193"/>
<path d="M304.929 376.562H307.673V384.352H308.73V376.562H311.475V375.625H304.929V376.562ZM314.764 384.488C316.094 384.488 317.066 383.824 317.372 382.835L316.401 382.562C316.145 383.244 315.553 383.585 314.764 383.585C313.584 383.585 312.77 382.822 312.723 381.42H317.475V380.994C317.475 378.556 316.026 377.721 314.662 377.721C312.889 377.721 311.713 379.119 311.713 381.13C311.713 383.142 312.872 384.488 314.764 384.488ZM312.723 380.551C312.791 379.532 313.512 378.625 314.662 378.625C315.753 378.625 316.452 379.443 316.452 380.551H312.723ZM321.664 384.488C323.112 384.488 324.067 383.602 324.237 382.443H323.232C323.044 383.159 322.448 383.585 321.664 383.585C320.47 383.585 319.703 382.596 319.703 381.079C319.703 379.596 320.487 378.625 321.664 378.625C322.55 378.625 323.078 379.17 323.232 379.767H324.237C324.067 378.539 323.027 377.721 321.646 377.721C319.874 377.721 318.698 379.119 318.698 381.113C318.698 383.074 319.823 384.488 321.664 384.488ZM326.713 380.414C326.713 379.272 327.442 378.625 328.435 378.625C329.381 378.625 329.952 379.221 329.952 380.261V384.352H330.958V380.193C330.958 378.51 330.063 377.721 328.725 377.721C327.693 377.721 327.105 378.152 326.798 378.829H326.713V375.625H325.708V384.352H326.713V380.414ZM333.803 380.414C333.803 379.272 334.51 378.625 335.474 378.625C336.407 378.625 336.974 379.234 336.974 380.261V384.352H337.979V380.193C337.979 378.522 337.089 377.721 335.763 377.721C334.775 377.721 334.161 378.164 333.854 378.829H333.769V377.806H332.797V384.352H333.803V380.414ZM342.476 384.488C344.249 384.488 345.442 383.142 345.442 381.113C345.442 379.068 344.249 377.721 342.476 377.721C340.703 377.721 339.51 379.068 339.51 381.113C339.51 383.142 340.703 384.488 342.476 384.488ZM342.476 383.585C341.129 383.585 340.516 382.426 340.516 381.113C340.516 379.801 341.129 378.625 342.476 378.625C343.823 378.625 344.436 379.801 344.436 381.113C344.436 382.426 343.823 383.585 342.476 383.585ZM347.983 375.625H346.977V384.352H347.983V375.625ZM352.484 384.488C354.257 384.488 355.45 383.142 355.45 381.113C355.45 379.068 354.257 377.721 352.484 377.721C350.711 377.721 349.518 379.068 349.518 381.113C349.518 383.142 350.711 384.488 352.484 384.488ZM352.484 383.585C351.137 383.585 350.524 382.426 350.524 381.113C350.524 379.801 351.137 378.625 352.484 378.625C353.83 378.625 354.444 379.801 354.444 381.113C354.444 382.426 353.83 383.585 352.484 383.585ZM359.627 386.943C361.195 386.943 362.456 386.227 362.456 384.539V377.806H361.485V378.846H361.383C361.161 378.505 360.752 377.721 359.474 377.721C357.82 377.721 356.678 379.034 356.678 381.045C356.678 383.091 357.871 384.25 359.456 384.25C360.735 384.25 361.144 383.5 361.366 383.142H361.451V384.471C361.451 385.562 360.684 386.056 359.627 386.056C358.438 386.056 358.02 385.43 357.752 385.068L356.951 385.63C357.36 386.316 358.165 386.943 359.627 386.943ZM359.593 383.346C358.331 383.346 357.684 382.392 357.684 381.028C357.684 379.699 358.314 378.625 359.593 378.625C360.82 378.625 361.468 379.613 361.468 381.028C361.468 382.477 360.803 383.346 359.593 383.346ZM364.945 386.806C365.853 386.806 366.492 386.325 366.871 385.306L369.658 377.824L368.559 377.806L366.752 383.022H366.684L364.877 377.806H363.786L366.206 384.386L366.019 384.897C365.653 385.895 365.201 385.988 364.468 385.801L364.212 386.687C364.314 386.738 364.604 386.806 364.945 386.806ZM374.722 380.67C374.722 382.818 375.301 384.608 376.341 386.125H377.227C376.409 385 375.762 382.699 375.762 380.67C375.762 378.642 376.409 376.341 377.227 375.216H376.341C375.301 376.733 374.722 378.522 374.722 380.67ZM381.763 375.625H380.706L378.524 377.074V378.147L380.655 376.733H380.706V384.352H381.763V375.625ZM384.068 382.562H388.176V384.352H389.182V382.562H390.375V381.625H389.182V375.625H387.903L384.068 381.693V382.562ZM388.176 381.625H385.21V381.556L388.108 376.971H388.176V381.625ZM394.137 379.988C394.137 377.841 393.557 376.051 392.517 374.534H391.631C392.449 375.659 393.097 377.96 393.097 379.988C393.097 382.017 392.449 384.318 391.631 385.443H392.517C393.557 383.926 394.137 382.136 394.137 379.988Z" fill="black"/>
<rect x="286.35" y="398.852" width="12" height="12" rx="2" fill="#E95D84"/>
<path d="M305.764 409.352L306.642 406.88H310.171L311.048 409.352H312.156L308.952 400.625H307.861L304.656 409.352H305.764ZM306.975 405.943L308.372 402.005H308.441L309.838 405.943H306.975ZM315.851 409.488C317.112 409.488 317.539 408.704 317.76 408.346H317.879V409.352H318.851V400.625H317.845V403.846H317.76C317.539 403.505 317.146 402.721 315.868 402.721C314.215 402.721 313.073 404.034 313.073 406.096C313.073 408.176 314.215 409.488 315.851 409.488ZM315.987 408.585C314.726 408.585 314.078 407.477 314.078 406.079C314.078 404.699 314.709 403.625 315.987 403.625C317.215 403.625 317.862 404.613 317.862 406.079C317.862 407.562 317.198 408.585 315.987 408.585ZM320.833 409.352H321.838V405.261C321.838 404.302 322.537 403.625 323.321 403.625C324.084 403.625 324.617 404.123 324.617 404.869V409.352H325.639V405.091C325.639 404.247 326.168 403.625 327.088 403.625C327.804 403.625 328.418 404.004 328.418 404.971V409.352H329.423V404.971C329.423 403.433 328.597 402.721 327.429 402.721C326.492 402.721 325.806 403.152 325.469 403.829H325.401C325.077 403.13 324.506 402.721 323.645 402.721C322.793 402.721 322.162 403.13 321.889 403.829H321.804V402.806H320.833V409.352ZM331.262 409.352H332.268V402.806H331.262V409.352ZM331.774 401.716C332.166 401.716 332.49 401.409 332.49 401.034C332.49 400.659 332.166 400.352 331.774 400.352C331.382 400.352 331.058 400.659 331.058 401.034C331.058 401.409 331.382 401.716 331.774 401.716ZM335.116 405.414C335.116 404.272 335.823 403.625 336.786 403.625C337.719 403.625 338.286 404.234 338.286 405.261V409.352H339.292V405.193C339.292 403.522 338.401 402.721 337.076 402.721C336.087 402.721 335.474 403.164 335.167 403.829H335.081V402.806H334.11V409.352H335.116V405.414ZM341.129 409.352H342.135V402.806H341.129V409.352ZM341.641 401.716C342.033 401.716 342.357 401.409 342.357 401.034C342.357 400.659 342.033 400.352 341.641 400.352C341.249 400.352 340.925 400.659 340.925 401.034C340.925 401.409 341.249 401.716 341.641 401.716ZM348.613 404.272C348.298 403.343 347.591 402.721 346.295 402.721C344.915 402.721 343.892 403.505 343.892 404.613C343.892 405.517 344.429 406.122 345.631 406.403L346.721 406.659C347.382 406.812 347.693 407.127 347.693 407.579C347.693 408.142 347.096 408.602 346.159 408.602C345.336 408.602 344.821 408.248 344.642 407.545L343.687 407.784C343.922 408.896 344.838 409.488 346.176 409.488C347.697 409.488 348.733 408.657 348.733 407.528C348.733 406.616 348.162 406.041 346.994 405.755L346.023 405.517C345.247 405.325 344.898 405.065 344.898 404.562C344.898 404 345.494 403.591 346.295 403.591C347.173 403.591 347.535 404.076 347.71 404.528L348.613 404.272ZM353.093 402.806H351.695V401.238H350.69V402.806H349.701V403.659H350.69V407.75C350.69 408.892 351.61 409.437 352.463 409.437C352.838 409.437 353.076 409.369 353.213 409.318L353.008 408.414C352.923 408.431 352.786 408.466 352.565 408.466C352.122 408.466 351.695 408.329 351.695 407.477V403.659H353.093V402.806ZM354.606 409.352H355.612V405.21C355.612 404.324 356.311 403.676 357.265 403.676C357.534 403.676 357.811 403.727 357.879 403.744V402.721C357.764 402.713 357.499 402.704 357.35 402.704C356.566 402.704 355.884 403.147 355.646 403.795H355.578V402.806H354.606V409.352ZM360.997 409.505C362.139 409.505 362.736 408.892 362.94 408.466H362.991V409.352H363.997V405.039C363.997 402.96 362.412 402.721 361.577 402.721C360.588 402.721 359.463 403.062 358.952 404.255L359.906 404.596C360.128 404.119 360.652 403.608 361.611 403.608C362.535 403.608 362.991 404.098 362.991 404.937V404.971C362.991 405.457 362.497 405.414 361.304 405.568C360.089 405.726 358.764 405.994 358.764 407.494C358.764 408.772 359.753 409.505 360.997 409.505ZM361.15 408.602C360.349 408.602 359.77 408.244 359.77 407.545C359.77 406.778 360.469 406.539 361.253 406.437C361.679 406.386 362.821 406.267 362.991 406.062V406.983C362.991 407.801 362.344 408.602 361.15 408.602ZM368.679 402.806H367.281V401.238H366.276V402.806H365.287V403.659H366.276V407.75C366.276 408.892 367.196 409.437 368.048 409.437C368.423 409.437 368.662 409.369 368.798 409.318L368.594 408.414C368.509 408.431 368.372 408.466 368.151 408.466C367.708 408.466 367.281 408.329 367.281 407.477V403.659H368.679V402.806ZM370.192 409.352H371.198V402.806H370.192V409.352ZM370.703 401.716C371.095 401.716 371.419 401.409 371.419 401.034C371.419 400.659 371.095 400.352 370.703 400.352C370.311 400.352 369.987 400.659 369.987 401.034C369.987 401.409 370.311 401.716 370.703 401.716ZM375.699 409.488C377.471 409.488 378.665 408.142 378.665 406.113C378.665 404.068 377.471 402.721 375.699 402.721C373.926 402.721 372.733 404.068 372.733 406.113C372.733 408.142 373.926 409.488 375.699 409.488ZM375.699 408.585C374.352 408.585 373.738 407.426 373.738 406.113C373.738 404.801 374.352 403.625 375.699 403.625C377.045 403.625 377.659 404.801 377.659 406.113C377.659 407.426 377.045 408.585 375.699 408.585ZM381.205 405.414C381.205 404.272 381.913 403.625 382.876 403.625C383.809 403.625 384.376 404.234 384.376 405.261V409.352H385.382V405.193C385.382 403.522 384.491 402.721 383.166 402.721C382.177 402.721 381.563 403.164 381.257 403.829H381.171V402.806H380.2V409.352H381.205V405.414ZM390.952 405.67C390.952 407.818 391.532 409.608 392.572 411.125H393.458C392.64 410 391.992 407.699 391.992 405.67C391.992 403.642 392.64 401.341 393.458 400.216H392.572C391.532 401.733 390.952 403.522 390.952 405.67ZM397.993 400.625H396.936L394.754 402.074V403.147L396.885 401.733H396.936V409.352H397.993V400.625ZM400.298 407.562H404.406V409.352H405.412V407.562H406.605V406.625H405.412V400.625H404.134L400.298 406.693V407.562ZM404.406 406.625H401.441V406.556L404.338 401.971H404.406V406.625ZM410.367 404.988C410.367 402.841 409.787 401.051 408.748 399.534H407.861C408.68 400.659 409.327 402.96 409.327 404.988C409.327 407.017 408.68 409.318 407.861 410.443H408.748C409.787 408.926 410.367 407.136 410.367 404.988Z" fill="black"/>
<rect x="286.35" y="423.852" width="12" height="12" rx="2" fill="#828282"/>
<path d="M312.77 429.988C312.77 427.227 311.151 425.505 308.918 425.505C306.685 425.505 305.066 427.227 305.066 429.988C305.066 432.75 306.685 434.471 308.918 434.471C311.151 434.471 312.77 432.75 312.77 429.988ZM311.747 429.988C311.747 432.255 310.503 433.483 308.918 433.483C307.333 433.483 306.088 432.255 306.088 429.988C306.088 427.721 307.333 426.494 308.918 426.494C310.503 426.494 311.747 427.721 311.747 429.988ZM317.257 427.806H315.86V426.238H314.854V427.806H313.865V428.659H314.854V432.75C314.854 433.892 315.774 434.437 316.627 434.437C317.002 434.437 317.24 434.369 317.377 434.318L317.172 433.414C317.087 433.431 316.95 433.466 316.729 433.466C316.286 433.466 315.86 433.329 315.86 432.477V428.659H317.257V427.806ZM319.916 430.414C319.916 429.272 320.645 428.625 321.638 428.625C322.584 428.625 323.155 429.221 323.155 430.261V434.352H324.161V430.193C324.161 428.51 323.266 427.721 321.928 427.721C320.896 427.721 320.308 428.152 320.002 428.829H319.916V425.625H318.911V434.352H319.916V430.414ZM328.745 434.488C330.074 434.488 331.046 433.824 331.353 432.835L330.381 432.562C330.126 433.244 329.533 433.585 328.745 433.585C327.564 433.585 326.751 432.822 326.704 431.42H331.455V430.994C331.455 428.556 330.006 427.721 328.643 427.721C326.87 427.721 325.694 429.119 325.694 431.13C325.694 433.142 326.853 434.488 328.745 434.488ZM326.704 430.551C326.772 429.532 327.492 428.625 328.643 428.625C329.733 428.625 330.432 429.443 330.432 430.551H326.704ZM332.985 434.352H333.991V430.21C333.991 429.324 334.689 428.676 335.644 428.676C335.912 428.676 336.189 428.727 336.258 428.744V427.721C336.143 427.713 335.878 427.704 335.729 427.704C334.945 427.704 334.263 428.147 334.025 428.795H333.956V427.806H332.985V434.352ZM342.086 429.272C341.771 428.343 341.063 427.721 339.768 427.721C338.387 427.721 337.365 428.505 337.365 429.613C337.365 430.517 337.901 431.122 339.103 431.403L340.194 431.659C340.855 431.812 341.166 432.127 341.166 432.579C341.166 433.142 340.569 433.602 339.632 433.602C338.809 433.602 338.294 433.248 338.115 432.545L337.16 432.784C337.394 433.896 338.311 434.488 339.649 434.488C341.17 434.488 342.205 433.657 342.205 432.528C342.205 431.616 341.634 431.041 340.467 430.755L339.495 430.517C338.72 430.325 338.37 430.065 338.37 429.562C338.37 429 338.967 428.591 339.768 428.591C340.646 428.591 341.008 429.076 341.183 429.528L342.086 429.272ZM347.452 430.67C347.452 432.818 348.032 434.608 349.072 436.125H349.958C349.14 435 348.492 432.699 348.492 430.67C348.492 428.642 349.14 426.341 349.958 425.216H349.072C348.032 426.733 347.452 428.522 347.452 430.67ZM354.374 434.471C356.066 434.471 357.323 433.41 357.323 431.983C357.323 430.875 356.666 430.069 355.567 429.886V429.818C356.449 429.549 356.999 428.825 356.999 427.841C356.999 426.605 356.023 425.505 354.408 425.505C352.899 425.505 351.646 426.434 351.595 427.806H352.618C352.656 426.937 353.483 426.426 354.391 426.426C355.354 426.426 355.976 427.01 355.976 427.892C355.976 428.812 355.256 429.409 354.22 429.409H353.521V430.346H354.22C355.546 430.346 356.283 431.02 356.283 431.983C356.283 432.907 355.477 433.534 354.357 433.534C353.347 433.534 352.546 433.014 352.482 432.17H351.408C351.472 433.542 352.682 434.471 354.374 434.471ZM361.23 429.988C361.23 427.841 360.651 426.051 359.611 424.534H358.725C359.543 425.659 360.191 427.96 360.191 429.988C360.191 432.017 359.543 434.318 358.725 435.443H359.611C360.651 433.926 361.23 432.136 361.23 429.988Z" fill="black"/>
</g>
<rect x="81.2969" y="274.688" width="378" height="206.216" rx="15.5" stroke="black"/>
<defs>
<clipPath id="clip0_0_1135">
<rect x="80.7969" y="0.567139" width="379" height="249" rx="16" fill="white"/>
</clipPath>
<clipPath id="clip1_0_1135">
<rect x="80.7969" y="274.188" width="379" height="207.216" rx="16" fill="white"/>
</clipPath>
</defs>
</svg>
