<svg width="33" height="32" viewBox="0 0 33 32" fill="none" xmlns="http://www.w3.org/2000/svg">
<path d="M29.1736 7.98504C28.24 8.38776 27.2241 8.67759 26.1776 8.79048C27.2641 8.14501 28.0777 7.12529 28.4658 5.92263C27.4463 6.52912 26.3294 6.9544 25.1647 7.1796C24.6779 6.6592 24.0892 6.24462 23.4352 5.96171C22.7812 5.67879 22.0759 5.53359 21.3633 5.53517C18.4802 5.53517 16.1615 7.87216 16.1615 10.74C16.1615 11.1427 16.2104 11.5454 16.2897 11.9329C11.9727 11.7071 8.12243 9.64473 5.56273 6.48705C5.09633 7.28368 4.85191 8.19075 4.85492 9.11387C4.85492 10.92 5.77324 12.5126 7.1736 13.4492C6.34835 13.4167 5.54242 13.1899 4.82136 12.7871V12.8512C4.82136 15.3804 6.60919 17.4764 8.99194 17.9584C8.54455 18.0746 8.08432 18.1341 7.62209 18.1354C7.28344 18.1354 6.96309 18.1018 6.6397 18.056C7.29869 20.1185 9.2177 21.6164 11.5028 21.6653C9.715 23.0656 7.47564 23.8894 5.04408 23.8894C4.6078 23.8894 4.20508 23.8741 3.78711 23.8253C6.09359 25.305 8.83024 26.1592 11.7774 26.1592C21.345 26.1592 26.5804 18.233 26.5804 11.3532C26.5804 11.1275 26.5804 10.9017 26.5651 10.6759C27.578 9.93456 28.4658 9.01624 29.1736 7.98504Z" fill="#0057FB"/>
</svg>
