<svg width="32" height="32" viewBox="0 0 32 32" fill="none" xmlns="http://www.w3.org/2000/svg">
<path d="M28.7597 8.37178C28.5199 6.86122 27.1389 5.54116 25.6105 5.36604C19.3735 4.68638 13.0811 4.68658 6.8441 5.36665C5.32121 5.54116 3.94025 6.86098 3.69923 8.37727C2.94112 13.3302 2.9414 18.3696 3.70009 23.3224C3.94013 24.8329 5.32121 26.1529 6.84922 26.3278C9.96455 26.6676 13.0961 26.8378 16.2299 26.8376C19.3637 26.8378 22.4952 26.6676 25.6105 26.3278L25.6155 26.3273C27.1385 26.153 28.5197 24.8331 28.7606 23.3167C29.5187 18.3638 29.5184 13.3245 28.7597 8.37178ZM20.6765 16.6592L14.8188 20.5644C14.6717 20.6624 14.5009 20.7186 14.3244 20.7272C14.1479 20.7357 13.9724 20.6962 13.8166 20.6128C13.6608 20.5294 13.5306 20.4053 13.4398 20.2537C13.349 20.1022 13.301 19.9288 13.301 19.7521V11.9418C13.301 11.7651 13.349 11.5917 13.4398 11.4401C13.5306 11.2885 13.6609 11.1644 13.8167 11.081C13.9725 10.9977 14.148 10.9581 14.3245 10.9667C14.501 10.9752 14.6719 11.0315 14.8189 11.1295L20.6766 15.0347C20.8103 15.1238 20.92 15.2446 20.9958 15.3863C21.0716 15.528 21.1113 15.6863 21.1113 15.847C21.1113 16.0077 21.0716 16.1659 20.9958 16.3076C20.92 16.4493 20.8103 16.5701 20.6766 16.6592H20.6765Z" fill="#0057FB"/>
</svg>
